<svg width="198" height="90" viewBox="0 0 198 90" fill="none" xmlns="http://www.w3.org/2000/svg">
    <g clip-path="url(#clip0_4_2)">
    <path d="M198 26.28C196.987 25.3667 196.403 24.26 196.25 22.96C196.203 22.5334 195.967 22.2867 195.54 22.22C194.793 22.1 194.097 22.18 193.45 22.46C193.286 22.5328 193.145 22.6483 193.041 22.7943C192.938 22.9403 192.875 23.1115 192.86 23.29L192.74 24.83C192.728 24.9737 192.665 25.1083 192.562 25.2093C192.46 25.3103 192.324 25.3709 192.18 25.38L189.54 25.53C189.428 25.5369 189.316 25.5115 189.218 25.4571C189.12 25.4026 189.039 25.3212 188.986 25.2225C188.932 25.1238 188.908 25.0118 188.916 24.8998C188.923 24.7877 188.963 24.6803 189.03 24.59L194.88 16.56C195.307 15.98 195.16 15.7034 194.44 15.73L192.62 15.79C191.94 15.81 191.393 16.09 190.98 16.63C188.973 19.25 186.917 22 184.81 24.88C184.097 25.8534 183.823 26.8934 183.99 28C184.037 28.3267 184.227 28.49 184.56 28.49L192.03 28.51C192.55 28.51 192.803 28.7667 192.79 29.28L192.76 30.89C192.747 31.57 193.08 31.9167 193.76 31.93L195.45 31.96C196.103 31.9667 196.373 31.65 196.26 31.01C196.053 29.8034 196.633 28.8067 198 28.02" stroke="#0F6E78" stroke-width="2"/>
    <path d="M198 37.18L188.88 37.26C188.787 37.26 188.698 37.2958 188.633 37.3596C188.567 37.4233 188.53 37.5098 188.53 37.6L188.66 52.98C188.673 54.0733 188.403 54.1466 187.85 53.2L179 37.78C178.787 37.4066 178.467 37.2166 178.04 37.21L169.7 37.11C169.641 37.1086 169.583 37.119 169.529 37.1406C169.474 37.1621 169.424 37.1943 169.382 37.2353C169.34 37.2763 169.307 37.3252 169.284 37.3793C169.262 37.4333 169.25 37.4913 169.25 37.55V66.68C169.25 67.3 169.56 67.61 170.18 67.61H178C178.407 67.61 178.61 67.4066 178.61 67V53.06C178.61 52.1466 178.853 52.0766 179.34 52.85L188.37 67.19C188.517 67.4166 188.727 67.53 189 67.53L198 67.57" stroke="#7B7779" stroke-width="2"/>
    <path d="M0 81.81L3.97 81.8" stroke="#7B7779" stroke-width="2"/>
    <path d="M3.96997 81.8L17.29 89.62C17.4771 89.7286 17.6894 89.7849 17.9042 89.7832C18.119 89.7814 18.3283 89.7216 18.51 89.61L36.63 78.63" stroke="#162A52" stroke-width="2"/>
    <path d="M36.63 78.63L55.43 67.1C55.7233 66.9267 55.87 66.67 55.87 66.33L56.02 50.37" stroke="#214867" stroke-width="2"/>
    <path d="M56.02 50.37C55.9733 49.97 55.7433 49.65 55.33 49.41C50.95 46.81 46.7567 44.1333 42.75 41.38" stroke="#7B7779" stroke-width="2"/>
    <path d="M42.75 41.3799L55.47 34.1099C55.8233 33.9099 56.0033 33.6099 56.01 33.2099L56.14 16.5699" stroke="#163659" stroke-width="2"/>
    <path d="M56.14 16.57L28.65 0.339995C28.4907 0.247086 28.3092 0.199779 28.1257 0.203309C27.9421 0.206839 27.7636 0.261068 27.61 0.359995L15.46 8.14" stroke="#7B7779" stroke-width="2"/>
    <path d="M15.46 8.14001C15.46 8.23335 15.37 8.27668 15.19 8.27001C15.03 8.26335 14.8867 8.30668 14.76 8.40001L0 18.07" stroke="#162F55" stroke-width="2"/>
    <path d="M74.89 61.27C74.7865 61.27 74.6874 61.2289 74.6142 61.1558C74.5411 61.0826 74.5 60.9834 74.5 60.88V44.38C74.5 44.2766 74.5411 44.1774 74.6142 44.1042C74.6874 44.0311 74.7865 43.99 74.89 43.99L86.37 44.01C86.4734 44.01 86.5726 43.9689 86.6458 43.8958C86.7189 43.8226 86.76 43.7234 86.76 43.62L86.74 38.02C86.74 37.9166 86.6989 37.8174 86.6258 37.7442C86.5526 37.6711 86.4534 37.63 86.35 37.63L74.89 37.58C74.7865 37.58 74.6874 37.5389 74.6142 37.4658C74.5411 37.3926 74.5 37.2934 74.5 37.19L74.51 22.23C74.51 22.1266 74.5511 22.0274 74.6242 21.9542C74.6974 21.8811 74.7966 21.84 74.9 21.84L87.86 21.93C87.9634 21.93 88.0626 21.8889 88.1358 21.8158C88.2089 21.7426 88.25 21.6434 88.25 21.54L88.26 15.89C88.26 15.8388 88.2499 15.7881 88.2303 15.7408C88.2107 15.6934 88.182 15.6504 88.1458 15.6142C88.1095 15.578 88.0666 15.5493 88.0192 15.5297C87.9719 15.5101 87.9212 15.5 87.87 15.5H65.5C65.4488 15.5 65.3981 15.5101 65.3507 15.5297C65.3034 15.5493 65.2604 15.578 65.2242 15.6142C65.188 15.6504 65.1593 15.6934 65.1397 15.7408C65.1201 15.7881 65.11 15.8388 65.11 15.89L65.14 67.23C65.14 67.3334 65.1811 67.4326 65.2542 67.5058C65.3274 67.5789 65.4265 67.62 65.53 67.62H87.87C87.9734 67.62 88.0726 67.5789 88.1458 67.5058C88.2189 67.4326 88.26 67.3334 88.26 67.23L88.25 61.63C88.25 61.5266 88.2089 61.4274 88.1358 61.3542C88.0626 61.2811 87.9634 61.24 87.86 61.24L74.89 61.27Z" stroke="#7B7779" stroke-width="2"/>
    <path d="M103.88 58.98L103.86 24.03C103.857 23.6591 103.971 23.297 104.187 22.9965C104.403 22.6961 104.709 22.4731 105.06 22.36C107.367 21.6 109.727 21.5834 112.14 22.31C113.52 22.73 113.98 25.2834 113.52 29.97C113.517 30.0072 113.522 30.0445 113.534 30.0797C113.546 30.1149 113.564 30.1471 113.589 30.1743C113.613 30.2016 113.643 30.2232 113.676 30.238C113.709 30.2527 113.744 30.2603 113.78 30.26L122.71 30.28C122.89 30.28 122.973 30.19 122.96 30.01C122.55 24.2 124.22 17.4 116.19 16.01C112.517 15.37 108.207 15.2567 103.26 15.67C97.25 16.18 94.44 19.28 94.47 24.89C94.5233 36.3434 94.5266 47.6867 94.48 58.92C94.46 64.15 98.01 67.0601 103.27 67.4401C108.8 67.8501 122 69.08 122.68 60.71C122.793 59.2634 122.89 57.8067 122.97 56.34C123.01 55.7 122.71 55.3801 122.07 55.3801L114.6 55.37C113.907 55.3634 113.553 55.7067 113.54 56.4001L113.5 58.64C113.48 60.0667 112.763 60.8867 111.35 61.1C109.53 61.38 107.61 61.3467 105.59 61C104.45 60.8067 103.88 60.1334 103.88 58.98Z" stroke="#7B7779" stroke-width="2"/>
    <path d="M140.47 28.76C140.372 28.7605 140.277 28.7312 140.196 28.6759C140.116 28.6207 140.054 28.5422 140.019 28.4508C139.984 28.3595 139.978 28.2598 140.001 28.1649C140.025 28.07 140.077 27.9846 140.15 27.92C142.26 26.05 145.44 23.79 145.67 20.88C146.17 14.58 138.64 14.77 134.74 16.89C134.133 17.2166 133.817 17.67 133.79 18.25C133.781 18.4866 133.828 18.7222 133.929 18.9366C134.029 19.1509 134.18 19.3378 134.367 19.4812C134.555 19.6245 134.774 19.7202 135.006 19.7601C135.238 19.7999 135.476 19.7827 135.7 19.71C137.37 19.17 139.54 17.89 141.21 19.06C142.84 20.21 141.77 22.25 140.66 23.27C138.873 24.9033 137.03 26.58 135.13 28.3C134.31 29.04 134.02 30.1 134.03 31.13C134.037 31.65 134.3 31.91 134.82 31.91H145.49C145.632 31.9107 145.773 31.8799 145.903 31.82C146.032 31.76 146.147 31.6722 146.24 31.5628C146.332 31.4533 146.399 31.3247 146.438 31.1861C146.476 31.0474 146.483 30.902 146.46 30.76L146.26 29.54C146.167 28.9866 145.843 28.7133 145.29 28.72L140.47 28.76Z" stroke="#0F6E78" stroke-width="2"/>
    <path d="M157.21 32.24C159.077 32.24 160.868 31.3508 162.188 29.768C163.508 28.1852 164.25 26.0384 164.25 23.8C164.25 21.5616 163.508 19.4148 162.188 17.832C160.868 16.2492 159.077 15.36 157.21 15.36C155.343 15.36 153.552 16.2492 152.232 17.832C150.912 19.4148 150.17 21.5616 150.17 23.8C150.17 26.0384 150.912 28.1852 152.232 29.768C153.552 31.3508 155.343 32.24 157.21 32.24Z" stroke="#0F6E78" stroke-width="2"/>
    <path d="M174.79 28.72C173.817 28.72 173.7 28.4067 174.44 27.78C176.53 26.01 179.4 23.95 179.77 21.03C180.6 14.41 172.11 14.78 168.45 17.22C167.73 17.7 167.623 18.29 168.13 18.99C168.25 19.1567 168.4 19.2933 168.58 19.4C169.413 19.9067 170.243 19.9067 171.07 19.4C172.717 18.38 174.213 18.32 175.56 19.22C175.853 19.4133 176.033 19.68 176.1 20.02C176.3 21.0533 175.997 21.99 175.19 22.83C173.263 24.81 171.287 26.6867 169.26 28.46C168.493 29.1333 168.11 29.9933 168.11 31.04C168.109 31.1577 168.131 31.2745 168.176 31.3836C168.22 31.4928 168.286 31.592 168.37 31.6757C168.454 31.7595 168.553 31.8259 168.663 31.8713C168.773 31.9166 168.891 31.94 169.01 31.94L179.44 31.89C180.153 31.89 180.497 31.53 180.47 30.81L180.44 29.81C180.42 29.0833 180.043 28.72 179.31 28.72H174.79Z" stroke="#0F6E78" stroke-width="2"/>
    <path d="M160.98 45.49C160.98 43.1429 160.048 40.8918 158.388 39.2321C156.728 37.5724 154.477 36.64 152.13 36.64H138.61C136.263 36.64 134.012 37.5724 132.352 39.2321C130.692 40.8918 129.76 43.1429 129.76 45.49V58.71C129.76 61.0572 130.692 63.3082 132.352 64.9679C134.012 66.6276 136.263 67.56 138.61 67.56H152.13C154.477 67.56 156.728 66.6276 158.388 64.9679C160.048 63.3082 160.98 61.0572 160.98 58.71V45.49Z" stroke="#7B7779" stroke-width="2"/>
    <path d="M56.14 16.5699C51.4467 19.4299 47.06 22.1533 42.98 24.7399C42.4734 25.0599 41.9034 25.0633 41.27 24.7499" stroke="#91ADD2" stroke-width="2"/>
    <path d="M41.2699 24.75L28.8199 16.91" stroke="#7B7779" stroke-width="2"/>
    <path d="M28.82 16.91C24.86 14.5367 20.5866 11.9033 16 9.01001C15.7133 8.83001 15.5333 8.54001 15.46 8.14001" stroke="#91A6CE" stroke-width="2"/>
    <path d="M28.82 16.91C23.8067 19.0567 19.03 21.9434 14.49 25.57" stroke="#162F55" stroke-width="2"/>
    <path d="M14.49 25.5699L0 34.6599" stroke="#91A6CE" stroke-width="2"/>
    <path d="M160.269 21.6463C160.272 21.2786 160.203 20.9139 160.065 20.573C159.928 20.232 159.724 19.9216 159.466 19.6593C159.209 19.397 158.902 19.1881 158.563 19.0444C158.225 18.9007 157.861 18.8251 157.494 18.8219L157.074 18.8183C156.331 18.8119 155.616 19.1006 155.087 19.6211C154.557 20.1416 154.256 20.8512 154.249 21.5937L154.211 25.9935C154.208 26.3612 154.277 26.726 154.415 27.0669C154.552 27.4078 154.756 27.7183 155.014 27.9806C155.271 28.2429 155.578 28.4518 155.917 28.5955C156.255 28.7391 156.619 28.8147 156.986 28.8179L157.406 28.8215C158.149 28.828 158.864 28.5393 159.393 28.0188C159.923 27.4983 160.224 26.7887 160.231 26.0461L160.269 21.6463Z" stroke="#0F6E78" stroke-width="2"/>
    <path d="M42.75 41.38C38.81 38.9867 35.0134 36.5767 31.3601 34.15C30.7734 33.7567 30.3367 33.79 30.05 34.25" stroke="#91ADD2" stroke-width="2"/>
    <path d="M30.05 34.25C30.0367 33.4233 30.18 32.9167 30.48 32.73C34.1734 30.45 37.8 28.0733 41.36 25.6C41.6334 25.4067 41.6034 25.1233 41.27 24.75" stroke="#163659" stroke-width="2"/>
    <path d="M30.05 34.25V50.29C30.05 50.87 30.2934 51.3233 30.7801 51.65L41.1101 58.49" stroke="#7B7779" stroke-width="2"/>
    <path d="M41.11 58.49C41.0366 58.97 40.8866 59.2767 40.66 59.41C36.5866 61.8567 32.5233 64.3233 28.47 66.81" stroke="#214867" stroke-width="2"/>
    <path d="M28.47 66.8099C24.07 69.4233 19.7367 72.1466 15.47 74.9799C15.2033 75.1599 14.88 75.1799 14.5 75.0399" stroke="#162A52" stroke-width="2"/>
    <path d="M14.5 75.0399L14.49 25.5699" stroke="#7B7779" stroke-width="2"/>
    <path d="M14.5 75.04L3.96997 81.8" stroke="#91A1CB" stroke-width="2"/>
    <path d="M56.02 50.37L42.67 58.16C42.39 58.3267 42.0866 58.4 41.76 58.38C41.4866 58.36 41.27 58.3967 41.11 58.49" stroke="#9CBFDF" stroke-width="2"/>
    <path d="M151.75 46.6311C151.75 46.224 151.671 45.8207 151.516 45.4444C151.361 45.068 151.133 44.7258 150.845 44.4375C150.558 44.1491 150.217 43.9202 149.841 43.7637C149.465 43.6073 149.062 43.5264 148.655 43.5257L142.155 43.5143C141.748 43.5136 141.345 43.5931 140.968 43.7482C140.592 43.9033 140.25 44.1311 139.961 44.4184C139.673 44.7058 139.444 45.0471 139.288 45.423C139.131 45.7988 139.05 46.2018 139.05 46.6089L139.03 57.6089C139.03 58.016 139.109 58.4192 139.264 58.7956C139.419 59.172 139.647 59.5141 139.935 59.8025C140.222 60.0909 140.563 60.3198 140.939 60.4762C141.315 60.6327 141.718 60.7136 142.125 60.7143L148.625 60.7257C149.032 60.7264 149.435 60.6469 149.812 60.4918C150.188 60.3366 150.53 60.1089 150.819 59.8215C151.107 59.5342 151.336 59.1928 151.492 58.817C151.649 58.4412 151.73 58.0382 151.73 57.6311L151.75 46.6311Z" stroke="#7B7779" stroke-width="2"/>
    <path d="M36.63 78.6299C35.1966 76.6499 33.6633 74.7599 32.03 72.9599C31.43 72.2933 30.99 71.3166 30.71 70.0299C30.4633 68.8899 29.7166 67.8166 28.47 66.8099" stroke="#3671B9" stroke-width="2"/>
    <path d="M56.14 16.57C51.4466 19.43 47.06 22.1533 42.98 24.74C42.4733 25.06 41.9033 25.0633 41.27 24.75L28.82 16.91C24.86 14.5367 20.5866 11.9033 16 9.01C15.7133 8.83 15.5333 8.54 15.46 8.14L27.61 0.359995C27.7636 0.261068 27.9421 0.206839 28.1257 0.203309C28.3092 0.199779 28.4907 0.247086 28.65 0.339995L56.14 16.57Z" fill="#F6EEF1"/>
    <path d="M15.46 8.14001C15.5333 8.54001 15.7133 8.83001 16 9.01001C20.5867 11.9033 24.86 14.5367 28.82 16.91C23.8067 19.0567 19.03 21.9433 14.49 25.57L0 34.66V18.07L14.76 8.40001C14.8867 8.30668 15.03 8.26335 15.19 8.27001C15.37 8.27668 15.46 8.23335 15.46 8.14001Z" fill="#2B5EAA"/>
    <path d="M74.89 61.27L87.86 61.24C87.9634 61.24 88.0626 61.2811 88.1358 61.3542C88.2089 61.4274 88.25 61.5266 88.25 61.63L88.26 67.23C88.26 67.3334 88.2189 67.4326 88.1458 67.5058C88.0726 67.5789 87.9734 67.62 87.87 67.62H65.53C65.4265 67.62 65.3274 67.5789 65.2542 67.5058C65.1811 67.4326 65.14 67.3334 65.14 67.23L65.11 15.89C65.11 15.8388 65.1201 15.7881 65.1397 15.7408C65.1593 15.6934 65.188 15.6504 65.2242 15.6142C65.2604 15.578 65.3034 15.5493 65.3507 15.5297C65.3981 15.5101 65.4488 15.5 65.5 15.5H87.87C87.9212 15.5 87.9719 15.5101 88.0192 15.5297C88.0666 15.5493 88.1095 15.578 88.1458 15.6142C88.182 15.6504 88.2107 15.6934 88.2303 15.7408C88.2499 15.7881 88.26 15.8388 88.26 15.89L88.25 21.54C88.25 21.6434 88.2089 21.7426 88.1358 21.8158C88.0626 21.8889 87.9634 21.93 87.86 21.93L74.9 21.84C74.7966 21.84 74.6974 21.8811 74.6242 21.9542C74.5511 22.0274 74.51 22.1266 74.51 22.23L74.5 37.19C74.5 37.2934 74.5411 37.3926 74.6142 37.4658C74.6874 37.5389 74.7865 37.58 74.89 37.58L86.35 37.63C86.4534 37.63 86.5526 37.6711 86.6258 37.7442C86.6989 37.8174 86.74 37.9166 86.74 38.02L86.76 43.62C86.76 43.7234 86.7189 43.8226 86.6458 43.8958C86.5726 43.9689 86.4734 44.01 86.37 44.01L74.89 43.99C74.7865 43.99 74.6874 44.0311 74.6142 44.1042C74.5411 44.1774 74.5 44.2766 74.5 44.38V60.88C74.5 60.9834 74.5411 61.0826 74.6142 61.1558C74.6874 61.2289 74.7865 61.27 74.89 61.27Z" fill="#F6EEF1"/>
    <path d="M103.88 58.98C103.88 60.1334 104.45 60.8067 105.59 61C107.61 61.3467 109.53 61.38 111.35 61.1C112.763 60.8867 113.48 60.0667 113.5 58.64L113.54 56.4001C113.553 55.7067 113.907 55.3634 114.6 55.37L122.07 55.3801C122.71 55.3801 123.01 55.7 122.97 56.34C122.89 57.8067 122.793 59.2634 122.68 60.71C122 69.08 108.8 67.8501 103.27 67.4401C98.01 67.0601 94.46 64.15 94.48 58.92C94.5266 47.6867 94.5233 36.3434 94.47 24.89C94.44 19.28 97.25 16.18 103.26 15.67C108.207 15.2567 112.517 15.37 116.19 16.01C124.22 17.4 122.55 24.2 122.96 30.01C122.973 30.19 122.89 30.28 122.71 30.28L113.78 30.26C113.744 30.2603 113.709 30.2527 113.676 30.238C113.643 30.2232 113.613 30.2016 113.589 30.1743C113.564 30.1471 113.546 30.1149 113.534 30.0797C113.522 30.0445 113.517 30.0072 113.52 29.97C113.98 25.2834 113.52 22.73 112.14 22.31C109.727 21.5834 107.367 21.6 105.06 22.36C104.709 22.4731 104.403 22.6961 104.187 22.9965C103.971 23.297 103.857 23.6591 103.86 24.03L103.88 58.98Z" fill="#F6EEF1"/>
    <path d="M140.47 28.76L145.29 28.72C145.843 28.7133 146.167 28.9866 146.26 29.54L146.46 30.76C146.483 30.902 146.476 31.0474 146.438 31.1861C146.399 31.3247 146.332 31.4533 146.24 31.5628C146.147 31.6722 146.032 31.76 145.903 31.82C145.773 31.8799 145.632 31.9107 145.49 31.91H134.82C134.3 31.91 134.037 31.65 134.03 31.13C134.02 30.1 134.31 29.04 135.13 28.3C137.03 26.58 138.873 24.9033 140.66 23.27C141.77 22.25 142.84 20.21 141.21 19.06C139.54 17.89 137.37 19.17 135.7 19.71C135.476 19.7827 135.238 19.7999 135.006 19.7601C134.774 19.7202 134.555 19.6245 134.367 19.4812C134.18 19.3378 134.029 19.1509 133.929 18.9366C133.828 18.7222 133.781 18.4866 133.79 18.25C133.817 17.67 134.133 17.2166 134.74 16.89C138.64 14.77 146.17 14.58 145.67 20.88C145.44 23.79 142.26 26.05 140.15 27.92C140.077 27.9846 140.025 28.07 140.001 28.1649C139.978 28.2598 139.984 28.3595 140.019 28.4508C140.054 28.5422 140.116 28.6207 140.196 28.6759C140.277 28.7312 140.372 28.7605 140.47 28.76Z" fill="#1DDBEF"/>
    <path d="M157.21 32.24C155.343 32.24 153.552 31.3508 152.232 29.768C150.912 28.1852 150.17 26.0384 150.17 23.8C150.17 21.5616 150.912 19.4148 152.232 17.832C153.552 16.2492 155.343 15.36 157.21 15.36C159.077 15.36 160.868 16.2492 162.188 17.832C163.508 19.4148 164.25 21.5616 164.25 23.8C164.25 26.0384 163.508 28.1852 162.188 29.768C160.868 31.3508 159.077 32.24 157.21 32.24ZM160.269 21.6464C160.272 21.2787 160.203 20.914 160.065 20.573C159.928 20.2321 159.724 19.9216 159.466 19.6593C159.209 19.3971 158.902 19.1881 158.563 19.0445C158.225 18.9008 157.861 18.8252 157.494 18.822L157.074 18.8184C156.331 18.8119 155.616 19.1007 155.087 19.6212C154.557 20.1417 154.256 20.8512 154.249 21.5938L154.211 25.9936C154.208 26.3613 154.277 26.726 154.415 27.067C154.552 27.4079 154.756 27.7184 155.014 27.9806C155.271 28.2429 155.578 28.4518 155.917 28.5955C156.255 28.7392 156.619 28.8148 156.986 28.818L157.406 28.8216C158.149 28.8281 158.864 28.5393 159.393 28.0188C159.923 27.4983 160.224 26.7887 160.231 26.0462L160.269 21.6464Z" fill="#1DDBEF"/>
    <path d="M174.79 28.72H179.31C180.043 28.72 180.42 29.0833 180.44 29.81L180.47 30.81C180.497 31.53 180.153 31.89 179.44 31.89L169.01 31.94C168.891 31.94 168.773 31.9166 168.663 31.8713C168.553 31.8259 168.454 31.7595 168.37 31.6757C168.286 31.592 168.22 31.4928 168.176 31.3836C168.131 31.2745 168.109 31.1577 168.11 31.04C168.11 29.9933 168.493 29.1333 169.26 28.46C171.287 26.6867 173.263 24.81 175.19 22.83C175.997 21.99 176.3 21.0533 176.1 20.02C176.033 19.68 175.853 19.4133 175.56 19.22C174.213 18.32 172.717 18.38 171.07 19.4C170.243 19.9067 169.413 19.9067 168.58 19.4C168.4 19.2933 168.25 19.1567 168.13 18.99C167.623 18.29 167.73 17.7 168.45 17.22C172.11 14.78 180.6 14.41 179.77 21.03C179.4 23.95 176.53 26.01 174.44 27.78C173.7 28.4067 173.817 28.72 174.79 28.72Z" fill="#1DDBEF"/>
    <path d="M198 26.28V28.02C196.633 28.8067 196.053 29.8034 196.26 31.01C196.373 31.65 196.103 31.9667 195.45 31.96L193.76 31.93C193.08 31.9167 192.747 31.57 192.76 30.89L192.79 29.28C192.803 28.7667 192.55 28.51 192.03 28.51L184.56 28.49C184.227 28.49 184.037 28.3267 183.99 28C183.823 26.8934 184.097 25.8534 184.81 24.88C186.917 22 188.973 19.25 190.98 16.63C191.393 16.09 191.94 15.81 192.62 15.79L194.44 15.73C195.16 15.7034 195.307 15.98 194.88 16.56L189.03 24.59C188.963 24.6803 188.923 24.7877 188.916 24.8998C188.908 25.0118 188.932 25.1238 188.986 25.2225C189.039 25.3212 189.12 25.4026 189.218 25.4571C189.316 25.5115 189.428 25.5369 189.54 25.53L192.18 25.38C192.324 25.3709 192.46 25.3103 192.562 25.2093C192.665 25.1083 192.728 24.9737 192.74 24.83L192.86 23.29C192.875 23.1115 192.938 22.9403 193.041 22.7943C193.145 22.6483 193.286 22.5328 193.45 22.46C194.097 22.18 194.793 22.1 195.54 22.22C195.967 22.2867 196.203 22.5334 196.25 22.96C196.403 24.26 196.987 25.3667 198 26.28Z" fill="#1DDBEF"/>
    <path d="M56.14 16.5699L56.01 33.2099C56.0034 33.6099 55.8234 33.9099 55.47 34.1099L42.75 41.3799C38.81 38.9866 35.0134 36.5766 31.36 34.1499C30.7734 33.7566 30.3367 33.7899 30.05 34.2499C30.0367 33.4233 30.18 32.9166 30.48 32.7299C34.1734 30.4499 37.8 28.0733 41.36 25.5999C41.6334 25.4066 41.6034 25.1233 41.27 24.7499C41.9034 25.0633 42.4734 25.0599 42.98 24.7399C47.06 22.1533 51.4467 19.4299 56.14 16.5699Z" fill="#2C6BB2"/>
    <path d="M14.49 25.5699L14.5 75.0399L3.97 81.7999L0 81.8099V34.6599L14.49 25.5699Z" fill="#F6EEF1"/>
    <path d="M42.75 41.38C46.7567 44.1333 50.9501 46.81 55.3301 49.41C55.7434 49.65 55.9734 49.97 56.0201 50.37L42.67 58.16C42.39 58.3267 42.0867 58.4 41.76 58.38C41.4867 58.36 41.2701 58.3967 41.1101 58.49L30.7801 51.65C30.2934 51.3233 30.05 50.87 30.05 50.29V34.25C30.3367 33.79 30.7734 33.7567 31.3601 34.15C35.0134 36.5767 38.81 38.9867 42.75 41.38Z" fill="#F6EEF1"/>
    <path d="M160.98 58.71C160.98 61.0572 160.048 63.3082 158.388 64.9679C156.728 66.6276 154.477 67.56 152.13 67.56H138.61C136.263 67.56 134.012 66.6276 132.352 64.9679C130.692 63.3082 129.76 61.0572 129.76 58.71V45.49C129.76 43.1429 130.692 40.8918 132.352 39.2321C134.012 37.5724 136.263 36.64 138.61 36.64H152.13C154.477 36.64 156.728 37.5724 158.388 39.2321C160.048 40.8918 160.98 43.1429 160.98 45.49V58.71ZM151.75 46.6311C151.75 46.224 151.671 45.8208 151.516 45.4444C151.361 45.068 151.133 44.7259 150.845 44.4375C150.558 44.1491 150.217 43.9202 149.841 43.7638C149.465 43.6073 149.062 43.5264 148.655 43.5257L142.155 43.5143C141.748 43.5136 141.345 43.5931 140.968 43.7482C140.592 43.9034 140.25 44.1311 139.961 44.4185C139.673 44.7058 139.444 45.0472 139.288 45.423C139.131 45.7988 139.05 46.2018 139.05 46.6089L139.03 57.6089C139.03 58.016 139.109 58.4193 139.264 58.7956C139.419 59.172 139.647 59.5142 139.935 59.8025C140.222 60.0909 140.563 60.3198 140.939 60.4763C141.315 60.6327 141.718 60.7136 142.125 60.7143L148.625 60.7257C149.032 60.7264 149.435 60.6469 149.812 60.4918C150.188 60.3367 150.53 60.1089 150.819 59.8216C151.107 59.5342 151.336 59.1929 151.492 58.817C151.649 58.4412 151.73 58.0382 151.73 57.6311L151.75 46.6311Z" fill="#F6EEF1"/>
    <path d="M198 37.18V67.57L189 67.53C188.727 67.53 188.517 67.4166 188.37 67.19L179.34 52.85C178.853 52.0766 178.61 52.1466 178.61 53.06V67C178.61 67.4066 178.407 67.61 178 67.61H170.18C169.56 67.61 169.25 67.3 169.25 66.68V37.55C169.25 37.4913 169.262 37.4333 169.284 37.3793C169.307 37.3252 169.34 37.2763 169.382 37.2353C169.424 37.1943 169.474 37.1621 169.529 37.1406C169.583 37.119 169.641 37.1086 169.7 37.11L178.04 37.21C178.467 37.2166 178.787 37.4066 179 37.78L187.85 53.2C188.403 54.1466 188.673 54.0733 188.66 52.98L188.53 37.6C188.53 37.5098 188.567 37.4233 188.633 37.3596C188.698 37.2958 188.787 37.26 188.88 37.26L198 37.18Z" fill="#F6EEF1"/>
    <path d="M56.02 50.37L55.87 66.33C55.87 66.67 55.7233 66.9267 55.43 67.1L36.63 78.63C35.1966 76.65 33.6633 74.76 32.03 72.96C31.43 72.2933 30.99 71.3167 30.71 70.03C30.4633 68.89 29.7166 67.8167 28.47 66.81C32.5233 64.3233 36.5866 61.8567 40.66 59.41C40.8866 59.2767 41.0366 58.97 41.11 58.49C41.27 58.3967 41.4866 58.36 41.76 58.38C42.0866 58.4 42.39 58.3267 42.67 58.16L56.02 50.37Z" fill="#418FCD"/>
    <path d="M28.47 66.8101C29.7166 67.8167 30.4633 68.8901 30.71 70.0301C30.99 71.3167 31.43 72.2934 32.03 72.9601C33.6633 74.7601 35.1966 76.6501 36.63 78.6301L18.51 89.6101C18.3283 89.7216 18.119 89.7815 17.9042 89.7832C17.6894 89.785 17.4771 89.7286 17.29 89.6201L3.96997 81.8001L14.5 75.0401C14.88 75.1801 15.2033 75.1601 15.47 74.9801C19.7366 72.1467 24.07 69.4234 28.47 66.8101Z" fill="#2B53A4"/>
    <path d="M59.1373 86.1593C58.2879 86.1593 57.6403 85.9204 57.1944 85.4426C56.7485 84.9542 56.5255 84.2588 56.5255 83.3564V77.4959C56.5255 76.5935 56.7485 75.9034 57.1944 75.4256C57.6403 74.9373 58.2879 74.6931 59.1373 74.6931C59.9866 74.6931 60.6342 74.9373 61.0801 75.4256C61.5261 75.9034 61.749 76.5935 61.749 77.4959V78.4514H60.0928V77.3844C60.0928 76.6519 59.7902 76.2856 59.185 76.2856C58.5799 76.2856 58.2773 76.6519 58.2773 77.3844V83.4838C58.2773 84.2058 58.5799 84.5667 59.185 84.5667C59.7902 84.5667 60.0928 84.2058 60.0928 83.4838V81.3021H59.2169V79.7095H61.749V83.3564C61.749 84.2588 61.5261 84.9542 61.0801 85.4426C60.6342 85.9204 59.9866 86.1593 59.1373 86.1593ZM62.8737 74.8523H67.6513V76.4449H64.6255V79.391H67.0302V80.9836H64.6255V84.4075H67.6513V86H62.8737V74.8523ZM68.6591 74.8523H70.8568L72.5608 81.525H72.5926V74.8523H74.1533V86H72.3537L70.2516 77.8622H70.2197V86H68.6591V74.8523ZM75.4553 74.8523H80.2329V76.4449H77.2071V79.391H79.6118V80.9836H77.2071V84.4075H80.2329V86H75.4553V74.8523ZM83.549 86.1593C82.6997 86.1593 82.0574 85.9204 81.6221 85.4426C81.1868 84.9542 80.9691 84.2588 80.9691 83.3564V82.7194H82.6254V83.4838C82.6254 84.2058 82.928 84.5667 83.5331 84.5667C83.8304 84.5667 84.0533 84.4818 84.202 84.3119C84.3612 84.1314 84.4408 83.8448 84.4408 83.452C84.4408 82.9848 84.3347 82.5761 84.1223 82.2257C83.91 81.8647 83.5172 81.4348 82.9439 80.9358C82.2219 80.2988 81.7176 79.7255 81.431 79.2158C81.1443 78.6956 81.001 78.1117 81.001 77.4641C81.001 76.5829 81.224 75.9034 81.6699 75.4256C82.1158 74.9373 82.7634 74.6931 83.6127 74.6931C84.4515 74.6931 85.0832 74.9373 85.5078 75.4256C85.9431 75.9034 86.1608 76.5935 86.1608 77.4959V77.9578H84.5046V77.3844C84.5046 77.0022 84.4302 76.7262 84.2816 76.5563C84.133 76.3758 83.9153 76.2856 83.6287 76.2856C83.0447 76.2856 82.7528 76.6413 82.7528 77.3526C82.7528 77.756 82.8589 78.1329 83.0713 78.4833C83.2942 78.8336 83.6924 79.2583 84.2657 79.7573C84.9982 80.3943 85.5025 80.9729 85.7786 81.4932C86.0546 82.0134 86.1926 82.6239 86.1926 83.3246C86.1926 84.2376 85.9644 84.9383 85.5078 85.4267C85.0619 85.9151 84.409 86.1593 83.549 86.1593ZM87.197 74.8523H88.9488V86H87.197V74.8523ZM92.5381 86.1593C91.6887 86.1593 91.0464 85.9204 90.6111 85.4426C90.1758 84.9542 89.9582 84.2588 89.9582 83.3564V82.7194H91.6144V83.4838C91.6144 84.2058 91.917 84.5667 92.5222 84.5667C92.8194 84.5667 93.0424 84.4818 93.191 84.3119C93.3503 84.1314 93.4299 83.8448 93.4299 83.452C93.4299 82.9848 93.3237 82.5761 93.1114 82.2257C92.8991 81.8647 92.5062 81.4348 91.9329 80.9358C91.211 80.2988 90.7067 79.7255 90.42 79.2158C90.1334 78.6956 89.99 78.1117 89.99 77.4641C89.99 76.5829 90.213 75.9034 90.6589 75.4256C91.1048 74.9373 91.7524 74.6931 92.6018 74.6931C93.4405 74.6931 94.0722 74.9373 94.4969 75.4256C94.9322 75.9034 95.1498 76.5935 95.1498 77.4959V77.9578H93.4936V77.3844C93.4936 77.0022 93.4193 76.7262 93.2706 76.5563C93.122 76.3758 92.9044 76.2856 92.6177 76.2856C92.0338 76.2856 91.7418 76.6413 91.7418 77.3526C91.7418 77.756 91.848 78.1329 92.0603 78.4833C92.2833 78.8336 92.6814 79.2583 93.2547 79.7573C93.9873 80.3943 94.4916 80.9729 94.7676 81.4932C95.0437 82.0134 95.1817 82.6239 95.1817 83.3246C95.1817 84.2376 94.9534 84.9383 94.4969 85.4267C94.051 85.9151 93.398 86.1593 92.5381 86.1593ZM98.3226 74.8523H100.011L100.791 83.4201H100.823L101.651 74.8523H103.562L104.39 83.4201H104.422L105.202 74.8523H106.715L105.584 86H103.403L102.606 78.4833H102.575L101.778 86H99.4532L98.3226 74.8523ZM108.737 74.8523H111.11L112.925 86H111.174L110.855 83.7864V83.8182H108.865L108.546 86H106.922L108.737 74.8523ZM110.648 82.3053L109.868 76.7952H109.836L109.072 82.3053H110.648ZM112.863 74.8523H114.63L115.777 83.4997H115.809L116.955 74.8523H118.564L116.876 86H114.551L112.863 74.8523ZM119.405 74.8523H124.183V76.4449H121.157V79.391H123.562V80.9836H121.157V84.4075H124.183V86H119.405V74.8523ZM130.273 86.1593C129.413 86.1593 128.755 85.9151 128.298 85.4267C127.842 84.9383 127.614 84.2482 127.614 83.3564V77.4959C127.614 76.6041 127.842 75.914 128.298 75.4256C128.755 74.9373 129.413 74.6931 130.273 74.6931C131.133 74.6931 131.791 74.9373 132.248 75.4256C132.704 75.914 132.933 76.6041 132.933 77.4959V83.3564C132.933 84.2482 132.704 84.9383 132.248 85.4267C131.791 85.9151 131.133 86.1593 130.273 86.1593ZM130.273 84.5667C130.878 84.5667 131.181 84.2004 131.181 83.4679V77.3844C131.181 76.6519 130.878 76.2856 130.273 76.2856C129.668 76.2856 129.365 76.6519 129.365 77.3844V83.4679C129.365 84.2004 129.668 84.5667 130.273 84.5667ZM134.117 74.8523H138.752V76.4449H135.869V79.5503H138.131V81.1428H135.869V86H134.117V74.8523ZM142.142 74.8523H143.894V86H142.142V74.8523ZM145.206 74.8523H147.404L149.108 81.525H149.139V74.8523H150.7V86H148.901L146.798 77.8622H146.767V86H145.206V74.8523ZM152.002 74.8523H154.2L155.904 81.525H155.936V74.8523H157.496V86H155.697L153.595 77.8622H153.563V86H152.002V74.8523ZM161.33 86.1593C160.471 86.1593 159.812 85.9151 159.356 85.4267C158.899 84.9383 158.671 84.2482 158.671 83.3564V77.4959C158.671 76.6041 158.899 75.914 159.356 75.4256C159.812 74.9373 160.471 74.6931 161.33 74.6931C162.19 74.6931 162.849 74.9373 163.305 75.4256C163.762 75.914 163.99 76.6041 163.99 77.4959V83.3564C163.99 84.2482 163.762 84.9383 163.305 85.4267C162.849 85.9151 162.19 86.1593 161.33 86.1593ZM161.33 84.5667C161.936 84.5667 162.238 84.2004 162.238 83.4679V77.3844C162.238 76.6519 161.936 76.2856 161.33 76.2856C160.725 76.2856 160.423 76.6519 160.423 77.3844V83.4679C160.423 84.2004 160.725 84.5667 161.33 84.5667ZM164.682 74.8523H166.449L167.596 83.4997H167.628L168.775 74.8523H170.383L168.695 86H166.37L164.682 74.8523ZM172.127 74.8523H174.5L176.315 86H174.564L174.245 83.7864V83.8182H172.254L171.936 86H170.312L172.127 74.8523ZM174.038 82.3053L173.258 76.7952H173.226L172.461 82.3053H174.038ZM177.804 76.4449H175.972V74.8523H181.387V76.4449H179.556V86H177.804V76.4449ZM182.235 74.8523H183.987V86H182.235V74.8523ZM187.831 86.1593C186.971 86.1593 186.313 85.9151 185.856 85.4267C185.4 84.9383 185.172 84.2482 185.172 83.3564V77.4959C185.172 76.6041 185.4 75.914 185.856 75.4256C186.313 74.9373 186.971 74.6931 187.831 74.6931C188.691 74.6931 189.349 74.9373 189.806 75.4256C190.262 75.914 190.491 76.6041 190.491 77.4959V83.3564C190.491 84.2482 190.262 84.9383 189.806 85.4267C189.349 85.9151 188.691 86.1593 187.831 86.1593ZM187.831 84.5667C188.436 84.5667 188.739 84.2004 188.739 83.4679V77.3844C188.739 76.6519 188.436 76.2856 187.831 76.2856C187.226 76.2856 186.923 76.6519 186.923 77.3844V83.4679C186.923 84.2004 187.226 84.5667 187.831 84.5667ZM191.675 74.8523H193.873L195.577 81.525H195.609V74.8523H197.169V86H195.37L193.268 77.8622H193.236V86H191.675V74.8523Z" fill="#F6EEF1"/>
    </g>
    <defs>
    <clipPath id="clip0_4_2">
    <rect width="198" height="90" fill="white"/>
    </clipPath>
    </defs>
    </svg>
    