<svg width="600" height="306" viewBox="0 0 600 306" fill="none" xmlns="http://www.w3.org/2000/svg">
<g clip-path="url(#clip0_201_58)">
<path d="M401.12 82.1258L414.884 82.0116C416.464 81.9926 417.387 82.7731 417.654 84.3532L418.225 87.8369C418.291 88.2426 418.269 88.6578 418.161 89.0537C418.052 89.4497 417.859 89.8167 417.595 90.1294C417.332 90.442 417.003 90.6927 416.634 90.8639C416.264 91.0351 415.862 91.1228 415.455 91.1208H384.986C383.501 91.1208 382.749 90.3784 382.73 88.8935C382.702 85.9523 383.53 82.9254 385.871 80.8123C391.297 75.9007 396.561 71.1129 401.663 66.4488C404.832 63.5362 407.888 57.7108 403.233 54.4269C398.464 51.0859 392.268 54.7411 387.499 56.2831C386.86 56.4908 386.18 56.5399 385.517 56.4261C384.855 56.3124 384.229 56.0391 383.693 55.6297C383.158 55.2202 382.728 54.6867 382.441 54.0746C382.154 53.4624 382.018 52.7898 382.045 52.1139C382.121 50.4577 383.025 49.1632 384.758 48.2304C395.894 42.1766 417.397 41.6341 415.969 59.6241C415.312 67.9337 406.231 74.3873 400.206 79.7272C399.997 79.9117 399.849 80.1557 399.782 80.4266C399.715 80.6975 399.733 80.9824 399.832 81.2431C399.931 81.5039 400.108 81.7281 400.338 81.8858C400.568 82.0436 400.841 82.1273 401.12 82.1258Z" fill="#1DDBEF"/>
<path d="M448.922 92.0631C443.59 92.0631 438.477 89.5239 434.707 85.0041C430.937 80.4843 428.819 74.3542 428.819 67.9622C428.819 61.5703 430.937 55.4401 434.707 50.9203C438.477 46.4005 443.59 43.8613 448.922 43.8613C454.254 43.8613 459.367 46.4005 463.137 50.9203C466.907 55.4401 469.025 61.5703 469.025 67.9622C469.025 74.3542 466.907 80.4843 463.137 85.0041C459.367 89.5239 454.254 92.0631 448.922 92.0631ZM457.657 61.8125C457.667 60.7625 457.469 59.721 457.076 58.7474C456.682 57.7739 456.101 56.8873 455.365 56.1384C454.629 55.3895 453.753 54.7928 452.786 54.3826C451.82 53.9723 450.782 53.7564 449.732 53.7473L448.532 53.737C446.412 53.7185 444.371 54.5431 442.859 56.0294C441.346 57.5156 440.486 59.5419 440.468 61.6623L440.358 74.2262C440.349 75.2761 440.546 76.3176 440.94 77.2912C441.333 78.2648 441.914 79.1513 442.65 79.9003C443.386 80.6492 444.263 81.2458 445.229 81.6561C446.196 82.0664 447.233 82.2822 448.283 82.2914L449.483 82.3017C451.603 82.3202 453.644 81.4956 455.157 80.0093C456.669 78.523 457.529 76.4968 457.548 74.3764L457.657 61.8125Z" fill="#1DDBEF"/>
<path d="M499.123 82.0115H512.03C514.124 82.0115 515.199 83.049 515.257 85.1241L515.342 87.9796C515.418 90.0356 514.438 91.0636 512.401 91.0636L482.618 91.2064C482.278 91.2064 481.941 91.1397 481.627 91.0102C481.314 90.8806 481.029 90.6909 480.79 90.4518C480.551 90.2128 480.362 89.9293 480.235 89.6177C480.107 89.306 480.044 88.9725 480.048 88.6364C480.048 85.6476 481.142 83.1918 483.331 81.2691C489.119 76.2052 494.763 70.8463 500.265 65.1923C502.568 62.7936 503.435 60.1189 502.863 57.1682C502.673 56.1973 502.159 55.4358 501.321 54.8837C497.476 52.3137 493.202 52.4851 488.5 55.3977C486.139 56.8445 483.769 56.8445 481.39 55.3977C480.876 55.0931 480.447 54.7029 480.105 54.2269C478.658 52.2281 478.962 50.5433 481.018 49.1726C491.47 42.2051 515.713 41.1485 513.343 60.0523C512.287 68.3905 504.091 74.2729 498.123 79.3273C496.01 81.1168 496.343 82.0115 499.123 82.0115Z" fill="#1DDBEF"/>
<path d="M565.4 75.044V80.0126C561.497 82.259 559.841 85.105 560.431 88.5508C560.755 90.3783 559.984 91.2826 558.118 91.2635L553.292 91.1779C551.351 91.1398 550.399 90.1499 550.437 88.2081L550.523 83.6106C550.561 82.1448 549.837 81.4119 548.352 81.4119L527.021 81.3548C526.07 81.3548 525.527 80.8883 525.394 79.9555C524.918 76.7954 525.698 73.8256 527.735 71.0462C533.751 62.8222 539.624 54.9694 545.354 47.4879C546.534 45.9459 548.095 45.1463 550.037 45.0892L555.234 44.9179C557.29 44.8417 557.709 45.6318 556.491 47.288L539.786 70.2181C539.595 70.4758 539.482 70.7827 539.459 71.1026C539.437 71.4225 539.506 71.7422 539.659 72.0241C539.812 72.306 540.042 72.5384 540.323 72.6939C540.603 72.8495 540.922 72.9218 541.242 72.9023L548.781 72.474C549.191 72.4479 549.579 72.2748 549.873 71.9865C550.166 71.6981 550.346 71.3136 550.38 70.9034L550.723 66.5059C550.765 65.9961 550.944 65.5072 551.241 65.0903C551.537 64.6734 551.94 64.3437 552.407 64.1357C554.254 63.3362 556.243 63.1077 558.375 63.4504C559.594 63.6408 560.27 64.3452 560.403 65.5635C560.841 69.2757 562.506 72.4359 565.4 75.044Z" fill="#1DDBEF"/>
<path d="M175.776 247.05C173.376 247.05 171.546 246.375 170.286 245.025C169.026 243.645 168.396 241.68 168.396 239.13V222.57C168.396 220.02 169.026 218.07 170.286 216.72C171.546 215.34 173.376 214.65 175.776 214.65C178.176 214.65 180.006 215.34 181.266 216.72C182.526 218.07 183.156 220.02 183.156 222.57V225.27H178.476V222.255C178.476 220.185 177.621 219.15 175.911 219.15C174.201 219.15 173.346 220.185 173.346 222.255V239.49C173.346 241.53 174.201 242.55 175.911 242.55C177.621 242.55 178.476 241.53 178.476 239.49V233.325H176.001V228.825H183.156V239.13C183.156 241.68 182.526 243.645 181.266 245.025C180.006 246.375 178.176 247.05 175.776 247.05ZM186.334 215.1H199.834V219.6H191.284V227.925H198.079V232.425H191.284V242.1H199.834V246.6H186.334V215.1ZM202.682 215.1H208.892L213.707 233.955H213.797V215.1H218.207V246.6H213.122L207.182 223.605H207.092V246.6H202.682V215.1ZM221.886 215.1H235.386V219.6H226.836V227.925H233.631V232.425H226.836V242.1H235.386V246.6H221.886V215.1ZM244.757 247.05C242.357 247.05 240.542 246.375 239.312 245.025C238.082 243.645 237.467 241.68 237.467 239.13V237.33H242.147V239.49C242.147 241.53 243.002 242.55 244.712 242.55C245.552 242.55 246.182 242.31 246.602 241.83C247.052 241.32 247.277 240.51 247.277 239.4C247.277 238.08 246.977 236.925 246.377 235.935C245.777 234.915 244.667 233.7 243.047 232.29C241.007 230.49 239.582 228.87 238.772 227.43C237.962 225.96 237.557 224.31 237.557 222.48C237.557 219.99 238.187 218.07 239.447 216.72C240.707 215.34 242.537 214.65 244.937 214.65C247.307 214.65 249.092 215.34 250.292 216.72C251.522 218.07 252.137 220.02 252.137 222.57V223.875H247.457V222.255C247.457 221.175 247.247 220.395 246.827 219.915C246.407 219.405 245.792 219.15 244.982 219.15C243.332 219.15 242.507 220.155 242.507 222.165C242.507 223.305 242.807 224.37 243.407 225.36C244.037 226.35 245.162 227.55 246.782 228.96C248.852 230.76 250.277 232.395 251.057 233.865C251.837 235.335 252.227 237.06 252.227 239.04C252.227 241.62 251.582 243.6 250.292 244.98C249.032 246.36 247.187 247.05 244.757 247.05ZM255.065 215.1H260.015V246.6H255.065V215.1ZM270.157 247.05C267.757 247.05 265.942 246.375 264.712 245.025C263.482 243.645 262.867 241.68 262.867 239.13V237.33H267.547V239.49C267.547 241.53 268.402 242.55 270.112 242.55C270.952 242.55 271.582 242.31 272.002 241.83C272.452 241.32 272.677 240.51 272.677 239.4C272.677 238.08 272.377 236.925 271.777 235.935C271.177 234.915 270.067 233.7 268.447 232.29C266.407 230.49 264.982 228.87 264.172 227.43C263.362 225.96 262.957 224.31 262.957 222.48C262.957 219.99 263.587 218.07 264.847 216.72C266.107 215.34 267.937 214.65 270.337 214.65C272.707 214.65 274.492 215.34 275.692 216.72C276.922 218.07 277.537 220.02 277.537 222.57V223.875H272.857V222.255C272.857 221.175 272.647 220.395 272.227 219.915C271.807 219.405 271.192 219.15 270.382 219.15C268.732 219.15 267.907 220.155 267.907 222.165C267.907 223.305 268.207 224.37 268.807 225.36C269.437 226.35 270.562 227.55 272.182 228.96C274.252 230.76 275.677 232.395 276.457 233.865C277.237 235.335 277.627 237.06 277.627 239.04C277.627 241.62 276.982 243.6 275.692 244.98C274.432 246.36 272.587 247.05 270.157 247.05ZM286.502 215.1H291.272L293.477 239.31H293.567L295.907 215.1H301.307L303.647 239.31H303.737L305.942 215.1H310.217L307.022 246.6H300.857L298.607 225.36H298.517L296.267 246.6H289.697L286.502 215.1ZM315.931 215.1H322.636L327.766 246.6H322.816L321.916 240.345V240.435H316.291L315.391 246.6H310.801L315.931 215.1ZM321.331 236.16L319.126 220.59H319.036L316.876 236.16H321.331ZM327.588 215.1H332.583L335.823 239.535H335.913L339.153 215.1H343.698L338.928 246.6H332.358L327.588 215.1ZM346.075 215.1H359.575V219.6H351.025V227.925H357.82V232.425H351.025V242.1H359.575V246.6H346.075V215.1ZM376.785 247.05C374.355 247.05 372.495 246.36 371.205 244.98C369.915 243.6 369.27 241.65 369.27 239.13V222.57C369.27 220.05 369.915 218.1 371.205 216.72C372.495 215.34 374.355 214.65 376.785 214.65C379.215 214.65 381.075 215.34 382.365 216.72C383.655 218.1 384.3 220.05 384.3 222.57V239.13C384.3 241.65 383.655 243.6 382.365 244.98C381.075 246.36 379.215 247.05 376.785 247.05ZM376.785 242.55C378.495 242.55 379.35 241.515 379.35 239.445V222.255C379.35 220.185 378.495 219.15 376.785 219.15C375.075 219.15 374.22 220.185 374.22 222.255V239.445C374.22 241.515 375.075 242.55 376.785 242.55ZM387.648 215.1H400.743V219.6H392.598V228.375H398.988V232.875H392.598V246.6H387.648V215.1ZM410.324 215.1H415.274V246.6H410.324V215.1ZM418.981 215.1H425.191L430.006 233.955H430.096V215.1H434.506V246.6H429.421L423.481 223.605H423.391V246.6H418.981V215.1ZM438.185 215.1H444.395L449.21 233.955H449.3V215.1H453.71V246.6H448.625L442.685 223.605H442.595V246.6H438.185V215.1ZM464.544 247.05C462.114 247.05 460.254 246.36 458.964 244.98C457.674 243.6 457.029 241.65 457.029 239.13V222.57C457.029 220.05 457.674 218.1 458.964 216.72C460.254 215.34 462.114 214.65 464.544 214.65C466.974 214.65 468.834 215.34 470.124 216.72C471.414 218.1 472.059 220.05 472.059 222.57V239.13C472.059 241.65 471.414 243.6 470.124 244.98C468.834 246.36 466.974 247.05 464.544 247.05ZM464.544 242.55C466.254 242.55 467.109 241.515 467.109 239.445V222.255C467.109 220.185 466.254 219.15 464.544 219.15C462.834 219.15 461.979 220.185 461.979 222.255V239.445C461.979 241.515 462.834 242.55 464.544 242.55ZM474.014 215.1H479.009L482.249 239.535H482.339L485.579 215.1H490.124L485.354 246.6H478.784L474.014 215.1ZM495.052 215.1H501.757L506.887 246.6H501.937L501.037 240.345V240.435H495.412L494.512 246.6H489.922L495.052 215.1ZM500.452 236.16L498.247 220.59H498.157L495.997 236.16H500.452ZM511.093 219.6H505.918V215.1H521.218V219.6H516.043V246.6H511.093V219.6ZM523.615 215.1H528.565V246.6H523.615V215.1ZM539.427 247.05C536.997 247.05 535.137 246.36 533.847 244.98C532.557 243.6 531.912 241.65 531.912 239.13V222.57C531.912 220.05 532.557 218.1 533.847 216.72C535.137 215.34 536.997 214.65 539.427 214.65C541.857 214.65 543.717 215.34 545.007 216.72C546.297 218.1 546.942 220.05 546.942 222.57V239.13C546.942 241.65 546.297 243.6 545.007 244.98C543.717 246.36 541.857 247.05 539.427 247.05ZM539.427 242.55C541.137 242.55 541.992 241.515 541.992 239.445V222.255C541.992 220.185 541.137 219.15 539.427 219.15C537.717 219.15 536.862 220.185 536.862 222.255V239.445C536.862 241.515 537.717 242.55 539.427 242.55ZM550.289 215.1H556.499L561.314 233.955H561.404V215.1H565.814V246.6H560.729L554.789 223.605H554.699V246.6H550.289V215.1Z" fill="#F6EEF1"/>
<path d="M0 237.33V102.611L41.5507 75.8818V218.988L10.7005 237.644H0V237.33Z" fill="#F6EEF0"/>
<path d="M42.7195 27.9507L120.995 76.6213L159.968 50.7512L80.2238 4L42.7195 27.9507Z" fill="#F6EEF0"/>
<path d="M85.4773 98.8616L159.991 146.8L119.625 172.125L85.6571 149.653L85.4773 98.8616Z" fill="#F6EEF0"/>
<path d="M159.969 50.751L85.4773 98.8614L122.495 122.558L159.984 100.124L159.969 50.751Z" fill="url(#paint0_linear_201_58)"/>
<path d="M0 102.611V54.8139L42.7197 27.9506L79.8793 51.1245L0 102.611Z" fill="url(#paint1_linear_201_58)"/>
<path d="M159.991 146.8L10.7529 237.644L51.1497 260.818L159.938 194.732L159.991 146.8Z" fill="url(#paint2_linear_201_58)"/>
<path d="M185.88 196.883V48.2271H251.934V66.2479H212.519V111.379H247.491V129.392H212.519V178.877H251.934V196.89H185.88V196.883Z" fill="#F6EEF0"/>
<path d="M350.734 162.095V171.625C350.734 188.466 340.093 196.883 318.82 196.883H301.607C280.334 196.883 269.693 188.466 269.693 171.625V73.4921C269.693 56.6512 280.334 48.2271 301.607 48.2271H318.82C340.093 48.2271 350.734 56.6512 350.734 73.4921V90.2584H324.095V74.941C324.095 69.1456 320.108 66.2479 312.158 66.2479H306.883C299.846 66.2479 296.332 69.1456 296.332 74.941V170.176C296.332 175.971 299.846 178.869 306.883 178.869H313.544C320.581 178.869 324.095 175.971 324.095 170.176V162.095H350.734Z" fill="#F6EEF0"/>
<path d="M402.356 196.883C380.887 196.883 370.157 187.689 370.157 169.295V136.263C370.157 117.727 380.798 108.451 402.071 108.451H427.601C448.875 108.451 459.523 117.727 459.523 136.263V169.295C459.523 187.689 448.785 196.883 427.324 196.883H402.356ZM408.74 177.211H422.341C429.377 177.211 432.891 174.045 432.891 167.719V137.637C432.891 131.304 428.92 128.145 420.955 128.145H408.478C400.7 128.145 396.811 131.311 396.811 137.637V167.719C396.803 174.045 400.775 177.211 408.74 177.211Z" fill="#F6EEF0"/>
<path d="M538.361 159.728V110.079H565V196.882H538.361L509.766 151.752V196.882H483.127V110.079H509.766L538.361 159.728Z" fill="#F6EEF0"/>
</g>
<path d="M374.64 292.48C372.693 292.48 370.76 292.227 368.84 291.72C366.92 291.187 365.293 290.44 363.96 289.48L366.48 284.52C367.547 285.293 368.787 285.907 370.2 286.36C371.613 286.813 373.04 287.04 374.48 287.04C376.107 287.04 377.387 286.72 378.32 286.08C379.253 285.44 379.72 284.56 379.72 283.44C379.72 282.373 379.307 281.533 378.48 280.92C377.653 280.307 376.32 280 374.48 280H371.52V275.72L379.32 266.88L380.04 269.2H365.36V264H384.96V268.2L377.2 277.04L373.92 275.16H375.8C379.24 275.16 381.84 275.933 383.6 277.48C385.36 279.027 386.24 281.013 386.24 283.44C386.24 285.013 385.827 286.493 385 287.88C384.173 289.24 382.907 290.347 381.2 291.2C379.493 292.053 377.307 292.48 374.64 292.48ZM404.192 292.48C402.139 292.48 400.312 292.147 398.712 291.48C397.112 290.813 395.845 289.907 394.912 288.76C393.979 287.613 393.512 286.293 393.512 284.8C393.512 283.413 393.819 282.173 394.432 281.08C395.045 279.96 396.019 278.92 397.352 277.96C398.685 276.973 400.379 276.013 402.432 275.08C403.925 274.387 405.099 273.773 405.952 273.24C406.805 272.707 407.405 272.2 407.752 271.72C408.099 271.213 408.272 270.707 408.272 270.2C408.272 269.507 408.032 268.947 407.552 268.52C407.099 268.093 406.419 267.88 405.512 267.88C404.552 267.88 403.805 268.12 403.272 268.6C402.739 269.08 402.472 269.693 402.472 270.44C402.472 270.84 402.552 271.24 402.712 271.64C402.872 272.013 403.179 272.453 403.632 272.96C404.085 273.44 404.725 274.067 405.552 274.84L420.312 288.52L416.912 292.48L400.632 277.36C399.699 276.507 398.952 275.707 398.392 274.96C397.832 274.213 397.419 273.48 397.152 272.76C396.912 272.04 396.792 271.293 396.792 270.52C396.792 269.16 397.152 267.96 397.872 266.92C398.592 265.88 399.605 265.08 400.912 264.52C402.219 263.933 403.752 263.64 405.512 263.64C407.139 263.64 408.539 263.907 409.712 264.44C410.912 264.947 411.845 265.68 412.512 266.64C413.205 267.6 413.552 268.747 413.552 270.08C413.552 271.253 413.259 272.333 412.672 273.32C412.085 274.28 411.165 275.187 409.912 276.04C408.685 276.893 407.072 277.76 405.072 278.64C403.712 279.253 402.632 279.853 401.832 280.44C401.059 281 400.499 281.573 400.152 282.16C399.805 282.747 399.632 283.4 399.632 284.12C399.632 284.787 399.832 285.387 400.232 285.92C400.659 286.453 401.245 286.867 401.992 287.16C402.739 287.453 403.619 287.6 404.632 287.6C406.259 287.6 407.752 287.227 409.112 286.48C410.472 285.707 411.619 284.573 412.552 283.08C413.512 281.56 414.192 279.72 414.592 277.56L419.592 279.12C419.032 281.84 418.032 284.2 416.592 286.2C415.152 288.2 413.379 289.747 411.272 290.84C409.165 291.933 406.805 292.48 404.192 292.48ZM426.97 286.12V281.76L440.17 264H446.97L434.05 281.76L430.89 280.84H452.93V286.12H426.97ZM442.05 292V286.12L442.25 280.84V275.6H448.37V292H442.05ZM482.756 276.6H496.196V281.8H482.756V276.6ZM483.236 292H476.756V264H497.916V269.2H483.236V292ZM512.663 275.28H526.143V280.32H512.663V275.28ZM513.143 286.8H528.383V292H506.703V264H527.863V269.2H513.143V286.8ZM537.939 292V264H551.619C555.139 264 557.779 264.667 559.539 266C561.325 267.333 562.219 269.093 562.219 271.28C562.219 272.747 561.859 274.027 561.139 275.12C560.419 276.187 559.432 277.013 558.179 277.6C556.925 278.187 555.485 278.48 553.859 278.48L554.619 276.84C556.379 276.84 557.939 277.133 559.299 277.72C560.659 278.28 561.712 279.12 562.459 280.24C563.232 281.36 563.619 282.733 563.619 284.36C563.619 286.76 562.672 288.64 560.779 290C558.885 291.333 556.099 292 552.419 292H537.939ZM544.379 287.12H551.939C553.619 287.12 554.885 286.853 555.739 286.32C556.619 285.76 557.059 284.88 557.059 283.68C557.059 282.507 556.619 281.64 555.739 281.08C554.885 280.493 553.619 280.2 551.939 280.2H543.899V275.48H550.819C552.392 275.48 553.592 275.213 554.419 274.68C555.272 274.12 555.699 273.28 555.699 272.16C555.699 271.067 555.272 270.253 554.419 269.72C553.592 269.16 552.392 268.88 550.819 268.88H544.379V287.12Z" fill="#06DCF2"/>
<defs>
<linearGradient id="paint0_linear_201_58" x1="94.5641" y1="114.168" x2="170.763" y2="68.9348" gradientUnits="userSpaceOnUse">
<stop offset="0.384" stop-color="#1F50A0"/>
<stop offset="0.8883" stop-color="#4FB9E9"/>
</linearGradient>
<linearGradient id="paint1_linear_201_58" x1="20.0937" y1="66.0597" x2="67.2076" y2="36.951" gradientUnits="userSpaceOnUse">
<stop offset="0.1551" stop-color="#2550A1"/>
<stop offset="1" stop-color="#50B8E9"/>
</linearGradient>
<linearGradient id="paint2_linear_201_58" x1="20.4588" y1="253.997" x2="170.687" y2="164.819" gradientUnits="userSpaceOnUse">
<stop offset="0.2898" stop-color="#284EA2"/>
<stop offset="0.9583" stop-color="#4FB8E9"/>
</linearGradient>
<clipPath id="clip0_201_58">
<rect width="565.4" height="257" fill="white"/>
</clipPath>
</defs>
</svg>
