<svg width="600" height="306" viewBox="0 0 600 306" fill="none" xmlns="http://www.w3.org/2000/svg">
<g clip-path="url(#clip0_201_58)">
<path d="M565.4 75.044C562.506 72.4359 560.841 69.2757 560.403 65.5635C560.27 64.3452 559.594 63.6408 558.375 63.4504C556.243 63.1078 554.254 63.3362 552.407 64.1357C551.94 64.3437 551.537 64.6734 551.241 65.0903C550.944 65.5072 550.765 65.9961 550.723 66.5059L550.38 70.9034C550.346 71.3136 550.166 71.6981 549.873 71.9865C549.579 72.2748 549.191 72.4479 548.781 72.474L541.242 72.9023C540.922 72.9218 540.603 72.8495 540.323 72.6939C540.042 72.5384 539.812 72.306 539.659 72.0241C539.506 71.7422 539.437 71.4225 539.459 71.1026C539.482 70.7827 539.595 70.4758 539.786 70.2181L556.491 47.288C557.709 45.6318 557.29 44.8417 555.234 44.9179L550.037 45.0892C548.095 45.1463 546.534 45.9459 545.354 47.4879C539.624 54.9694 533.751 62.8222 527.735 71.0462C525.698 73.8256 524.918 76.7954 525.394 79.9555C525.527 80.8883 526.07 81.3548 527.021 81.3548L548.352 81.4119C549.837 81.4119 550.561 82.1448 550.523 83.6106L550.437 88.2081C550.399 90.1499 551.351 91.1398 553.292 91.1779L558.118 91.2635C559.984 91.2826 560.755 90.3783 560.431 88.5508C559.841 85.1051 561.497 82.259 565.4 80.0126" stroke="#0F6E78" stroke-width="2"/>
<path d="M565.4 106.17L539.357 106.398C539.092 106.398 538.838 106.5 538.651 106.682C538.463 106.864 538.358 107.111 538.358 107.369L538.729 151.287C538.767 154.409 537.996 154.619 536.416 151.916L511.144 107.883C510.535 106.817 509.621 106.274 508.403 106.255L484.588 105.97C484.42 105.966 484.254 105.996 484.098 106.057C483.942 106.118 483.8 106.21 483.681 106.327C483.561 106.444 483.466 106.584 483.401 106.739C483.336 106.893 483.303 107.059 483.303 107.226V190.408C483.303 192.179 484.188 193.064 485.958 193.064H508.289C509.45 193.064 510.031 192.483 510.031 191.322V151.516C510.031 148.908 510.726 148.708 512.115 150.916L537.901 191.865C538.32 192.512 538.919 192.836 539.7 192.836L565.4 192.95" stroke="#7B7779" stroke-width="2"/>
<path d="M0 233.613L11.3366 233.584" stroke="#7B7779" stroke-width="2"/>
<path d="M11.3367 233.584L49.3727 255.915C49.9072 256.225 50.5132 256.386 51.1266 256.381C51.7399 256.376 52.3377 256.205 52.8565 255.886L104.599 224.532" stroke="#162A52" stroke-width="2"/>
<path d="M104.599 224.532L158.284 191.608C159.121 191.113 159.54 190.38 159.54 189.409L159.968 143.834" stroke="#214867" stroke-width="2"/>
<path d="M159.968 143.834C159.835 142.692 159.178 141.778 157.998 141.093C145.491 133.669 133.516 126.025 122.075 118.163" stroke="#7B7779" stroke-width="2"/>
<path d="M122.075 118.163L158.398 97.403C159.407 96.8319 159.921 95.9752 159.94 94.833L160.311 47.3165" stroke="#163659" stroke-width="2"/>
<path d="M160.311 47.3166L81.8118 0.970918C81.3569 0.705611 80.8387 0.570524 80.3146 0.580604C79.7905 0.590683 79.2808 0.745537 78.842 1.02803L44.147 23.2443" stroke="#7B7779" stroke-width="2"/>
<path d="M44.1469 23.2443C44.1469 23.5108 43.8899 23.6345 43.3759 23.6155C42.919 23.5964 42.5097 23.7202 42.148 23.9867L0 51.5999" stroke="#162F55" stroke-width="2"/>
<path d="M213.853 174.96C213.557 174.96 213.274 174.843 213.065 174.634C212.856 174.425 212.739 174.142 212.739 173.846V126.73C212.739 126.434 212.856 126.151 213.065 125.942C213.274 125.733 213.557 125.616 213.853 125.616L246.634 125.673C246.93 125.673 247.213 125.556 247.422 125.347C247.631 125.138 247.748 124.855 247.748 124.559L247.691 108.568C247.691 108.273 247.574 107.99 247.365 107.781C247.156 107.572 246.873 107.455 246.577 107.455L213.853 107.312C213.557 107.312 213.274 107.194 213.065 106.986C212.856 106.777 212.739 106.493 212.739 106.198L212.768 63.479C212.768 63.1836 212.885 62.9004 213.094 62.6915C213.303 62.4827 213.586 62.3653 213.881 62.3653L250.889 62.6223C251.185 62.6223 251.468 62.505 251.677 62.2961C251.886 62.0873 252.003 61.804 252.003 61.5087L252.031 45.3748C252.031 45.2285 252.003 45.0837 251.947 44.9486C251.891 44.8135 251.809 44.6907 251.705 44.5873C251.602 44.4839 251.479 44.4018 251.344 44.3459C251.209 44.2899 251.064 44.2611 250.918 44.2611H187.039C186.893 44.2611 186.748 44.2899 186.613 44.3459C186.478 44.4018 186.355 44.4839 186.251 44.5873C186.148 44.6907 186.066 44.8135 186.01 44.9486C185.954 45.0837 185.925 45.2285 185.925 45.3748L186.011 191.979C186.011 192.274 186.128 192.558 186.337 192.766C186.546 192.975 186.829 193.093 187.125 193.093H250.918C251.213 193.093 251.496 192.975 251.705 192.766C251.914 192.558 252.031 192.274 252.031 191.979L252.003 175.988C252.003 175.693 251.886 175.409 251.677 175.2C251.468 174.992 251.185 174.874 250.889 174.874L213.853 174.96Z" stroke="#7B7779" stroke-width="2"/>
<path d="M296.635 168.421L296.578 68.6191C296.568 67.5598 296.896 66.5257 297.512 65.6678C298.128 64.8099 299.002 64.1731 300.005 63.8503C306.591 61.6801 313.331 61.6325 320.222 63.7075C324.163 64.9068 325.476 72.198 324.163 85.5811C324.155 85.6872 324.168 85.7938 324.202 85.8942C324.236 85.9946 324.289 86.0865 324.359 86.1643C324.429 86.2421 324.513 86.304 324.607 86.3462C324.701 86.3883 324.803 86.4098 324.905 86.4092L350.405 86.4663C350.919 86.4663 351.157 86.2093 351.119 85.6953C349.948 69.1045 354.717 49.6867 331.787 45.7175C321.298 43.8899 308.99 43.5663 294.865 44.7466C277.703 46.2029 269.679 55.0552 269.764 71.0748C269.917 103.78 269.926 136.172 269.793 168.249C269.736 183.184 279.873 191.494 294.893 192.579C310.684 193.75 348.378 197.262 350.32 173.361C350.643 169.23 350.919 165.07 351.148 160.882C351.262 159.055 350.405 158.141 348.578 158.141L327.247 158.112C325.267 158.093 324.258 159.074 324.22 161.053L324.106 167.45C324.048 171.524 322.002 173.865 317.966 174.474C312.769 175.274 307.286 175.179 301.518 174.189C298.263 173.637 296.635 171.714 296.635 168.421Z" stroke="#7B7779" stroke-width="2"/>
<path d="M401.12 82.1258C400.841 82.1273 400.568 82.0436 400.338 81.8858C400.108 81.7281 399.931 81.5039 399.832 81.2431C399.733 80.9824 399.715 80.6975 399.782 80.4266C399.849 80.1557 399.997 79.9117 400.206 79.7272C406.231 74.3873 415.312 67.9337 415.969 59.6241C417.397 41.6341 395.894 42.1766 384.758 48.2304C383.025 49.1632 382.121 50.4577 382.045 52.1139C382.018 52.7898 382.154 53.4624 382.441 54.0746C382.728 54.6867 383.158 55.2202 383.693 55.6297C384.229 56.0391 384.855 56.3124 385.517 56.4261C386.18 56.5399 386.86 56.4908 387.499 56.2831C392.268 54.7411 398.464 51.0859 403.233 54.4269C407.888 57.7108 404.832 63.5362 401.663 66.4488C396.561 71.1129 391.297 75.9007 385.871 80.8123C383.53 82.9254 382.702 85.9523 382.73 88.8935C382.749 90.3784 383.501 91.1208 384.986 91.1208H415.455C415.862 91.1228 416.264 91.0351 416.634 90.8639C417.003 90.6927 417.332 90.442 417.595 90.1294C417.859 89.8167 418.052 89.4497 418.161 89.0537C418.269 88.6578 418.291 88.2426 418.225 87.8369L417.654 84.3532C417.387 82.7731 416.464 81.9926 414.884 82.0116L401.12 82.1258Z" stroke="#0F6E78" stroke-width="2"/>
<path d="M448.922 92.0631C454.254 92.0631 459.367 89.5239 463.137 85.0041C466.907 80.4843 469.025 74.3542 469.025 67.9622C469.025 61.5703 466.907 55.4401 463.137 50.9203C459.367 46.4005 454.254 43.8613 448.922 43.8613C443.59 43.8613 438.477 46.4005 434.707 50.9203C430.937 55.4401 428.819 61.5703 428.819 67.9622C428.819 74.3542 430.937 80.4843 434.707 85.0041C438.477 89.5239 443.59 92.0631 448.922 92.0631Z" stroke="#0F6E78" stroke-width="2"/>
<path d="M499.123 82.0116C496.343 82.0116 496.01 81.1169 498.123 79.3274C504.091 74.2731 512.287 68.3906 513.343 60.0524C515.713 41.1486 491.47 42.2052 481.018 49.1727C478.962 50.5434 478.658 52.2282 480.105 54.2271C480.447 54.703 480.876 55.0932 481.39 55.3978C483.769 56.8447 486.139 56.8447 488.5 55.3978C493.202 52.4852 497.476 52.3138 501.321 54.8838C502.159 55.4359 502.673 56.1974 502.863 57.1683C503.435 60.119 502.568 62.7937 500.265 65.1924C494.763 70.8464 489.119 76.2053 483.331 81.2692C481.142 83.1919 480.048 85.6477 480.048 88.6365C480.044 88.9726 480.107 89.3062 480.235 89.6178C480.362 89.9294 480.551 90.2129 480.79 90.452C481.029 90.691 481.314 90.8808 481.627 91.0103C481.941 91.1398 482.278 91.2065 482.618 91.2065L512.401 91.0637C514.438 91.0637 515.418 90.0357 515.342 87.9797L515.257 85.1242C515.199 83.0491 514.124 82.0116 512.03 82.0116H499.123Z" stroke="#0F6E78" stroke-width="2"/>
<path d="M459.687 129.899C459.687 123.197 457.025 116.769 452.285 112.029C447.546 107.29 441.118 104.628 434.416 104.628H395.809C389.106 104.628 382.678 107.29 377.939 112.029C373.199 116.769 370.537 123.197 370.537 129.899V167.65C370.537 174.352 373.199 180.78 377.939 185.519C382.678 190.259 389.106 192.921 395.809 192.921H434.416C441.118 192.921 447.546 190.259 452.285 185.519C457.025 180.78 459.687 174.352 459.687 167.65V129.899Z" stroke="#7B7779" stroke-width="2"/>
<path d="M160.311 47.3165C146.909 55.4834 134.383 63.26 122.732 70.6464C121.285 71.5602 119.657 71.5697 117.849 70.675" stroke="#91ADD2" stroke-width="2"/>
<path d="M117.849 70.675L82.2971 48.2875" stroke="#7B7779" stroke-width="2"/>
<path d="M82.2972 48.2875C70.9892 41.5103 58.7865 33.9907 45.689 25.7286C44.8704 25.2146 44.3564 24.3865 44.147 23.2443" stroke="#91A6CE" stroke-width="2"/>
<path d="M82.2971 48.2875C67.9812 54.4174 54.3412 62.6604 41.377 73.0166" stroke="#162F55" stroke-width="2"/>
<path d="M41.377 73.0166L0 98.9736" stroke="#91A6CE" stroke-width="2"/>
<path d="M457.657 61.8125C457.666 60.7625 457.469 59.721 457.075 58.7475C456.682 57.7739 456.101 56.8873 455.365 56.1384C454.629 55.3895 453.753 54.7928 452.786 54.3826C451.82 53.9723 450.782 53.7564 449.732 53.7473L448.532 53.737C446.412 53.7185 444.371 54.5431 442.858 56.0294C441.346 57.5157 440.486 59.5419 440.467 61.6623L440.358 74.2262C440.349 75.2762 440.546 76.3177 440.94 77.2912C441.333 78.2648 441.914 79.1514 442.65 79.9003C443.386 80.6492 444.262 81.2459 445.229 81.6561C446.195 82.0664 447.233 82.2823 448.283 82.2914L449.483 82.3017C451.603 82.3202 453.644 81.4956 455.156 80.0093C456.669 78.523 457.529 76.4968 457.548 74.3764L457.657 61.8125Z" stroke="#0F6E78" stroke-width="2"/>
<path d="M122.075 118.163C110.824 111.329 99.9826 104.447 89.5504 97.5173C87.8751 96.3941 86.6282 96.4893 85.8096 97.8029" stroke="#91ADD2" stroke-width="2"/>
<path d="M85.8096 97.8028C85.7715 95.4422 86.1808 93.9954 87.0374 93.4624C97.584 86.9517 107.94 80.165 118.106 73.1023C118.886 72.5502 118.801 71.7411 117.849 70.675" stroke="#163659" stroke-width="2"/>
<path d="M85.8096 97.8029V143.606C85.8096 145.262 86.5044 146.557 87.8941 147.49L117.392 167.022" stroke="#7B7779" stroke-width="2"/>
<path d="M117.392 167.021C117.182 168.392 116.754 169.268 116.107 169.649C104.475 176.635 92.8721 183.679 81.2976 190.78" stroke="#214867" stroke-width="2"/>
<path d="M81.2976 190.78C68.7332 198.242 56.3591 206.019 44.1754 214.11C43.4139 214.624 42.4906 214.681 41.4055 214.281" stroke="#162A52" stroke-width="2"/>
<path d="M41.4055 214.281L41.377 73.0166" stroke="#7B7779" stroke-width="2"/>
<path d="M41.4057 214.281L11.3367 233.584" stroke="#91A1CB" stroke-width="2"/>
<path d="M159.968 143.834L121.847 166.079C121.047 166.555 120.181 166.764 119.248 166.707C118.467 166.65 117.849 166.755 117.392 167.021" stroke="#9CBFDF" stroke-width="2"/>
<path d="M433.329 133.158C433.331 131.995 433.105 130.844 432.662 129.769C432.219 128.694 431.568 127.717 430.748 126.894C429.927 126.07 428.952 125.417 427.879 124.97C426.806 124.523 425.655 124.292 424.493 124.29L405.932 124.258C404.769 124.256 403.618 124.483 402.543 124.926C401.468 125.369 400.491 126.019 399.668 126.839C398.844 127.66 398.19 128.635 397.744 129.708C397.297 130.781 397.066 131.932 397.064 133.094L397.009 164.505C397.007 165.668 397.234 166.819 397.677 167.894C398.12 168.969 398.77 169.946 399.591 170.769C400.411 171.593 401.386 172.247 402.459 172.693C403.533 173.14 404.683 173.371 405.846 173.373L424.407 173.406C425.569 173.408 426.721 173.181 427.796 172.738C428.871 172.295 429.848 171.644 430.671 170.824C431.494 170.003 432.148 169.029 432.595 167.955C433.042 166.882 433.273 165.731 433.275 164.569L433.329 133.158Z" stroke="#7B7779" stroke-width="2"/>
<path d="M104.599 224.532C100.506 218.878 96.1275 213.481 91.4634 208.341C89.7501 206.438 88.4936 203.649 87.6941 199.975C86.9897 196.719 84.8575 193.654 81.2976 190.78" stroke="#3671B9" stroke-width="2"/>
<path d="M160.311 47.3166C146.909 55.4835 134.383 63.2601 122.732 70.6465C121.285 71.5602 119.657 71.5698 117.849 70.675L82.2972 48.2875C70.9892 41.5103 58.7865 33.9907 45.689 25.7286C44.8704 25.2146 44.3564 24.3865 44.147 23.2443L78.842 1.02803C79.2808 0.745537 79.7905 0.590683 80.3146 0.580604C80.8387 0.570524 81.3569 0.705611 81.8118 0.970918L160.311 47.3166Z" fill="#F6EEF1"/>
<path d="M44.1469 23.2443C44.3563 24.3865 44.8703 25.2146 45.6889 25.7286C58.7864 33.9907 70.9891 41.5103 82.2971 48.2875C67.9813 54.4174 54.3412 62.6604 41.377 73.0166L0 98.9736V51.5999L42.148 23.9867C42.5097 23.7202 42.919 23.5964 43.3759 23.6155C43.8899 23.6345 44.1469 23.5108 44.1469 23.2443Z" fill="#2B5EAA"/>
<path d="M213.853 174.96L250.889 174.874C251.185 174.874 251.468 174.992 251.677 175.2C251.886 175.409 252.003 175.693 252.003 175.988L252.031 191.979C252.031 192.274 251.914 192.558 251.705 192.766C251.496 192.975 251.213 193.093 250.918 193.093H187.125C186.829 193.093 186.546 192.975 186.337 192.766C186.128 192.558 186.011 192.274 186.011 191.979L185.925 45.3748C185.925 45.2285 185.954 45.0837 186.01 44.9486C186.066 44.8135 186.148 44.6907 186.251 44.5873C186.355 44.4839 186.478 44.4018 186.613 44.3459C186.748 44.2899 186.893 44.2611 187.039 44.2611H250.918C251.064 44.2611 251.209 44.2899 251.344 44.3459C251.479 44.4018 251.602 44.4839 251.705 44.5873C251.809 44.6907 251.891 44.8135 251.947 44.9486C252.003 45.0837 252.031 45.2285 252.031 45.3748L252.003 61.5087C252.003 61.804 251.886 62.0873 251.677 62.2961C251.468 62.505 251.185 62.6223 250.889 62.6223L213.881 62.3653C213.586 62.3653 213.303 62.4827 213.094 62.6915C212.885 62.9004 212.768 63.1836 212.768 63.479L212.739 106.198C212.739 106.493 212.856 106.777 213.065 106.986C213.274 107.194 213.557 107.312 213.853 107.312L246.577 107.455C246.873 107.455 247.156 107.572 247.365 107.781C247.574 107.99 247.691 108.273 247.691 108.568L247.748 124.559C247.748 124.855 247.631 125.138 247.422 125.347C247.213 125.556 246.93 125.673 246.634 125.673L213.853 125.616C213.557 125.616 213.274 125.733 213.065 125.942C212.856 126.151 212.739 126.434 212.739 126.73V173.846C212.739 174.142 212.856 174.425 213.065 174.634C213.274 174.843 213.557 174.96 213.853 174.96Z" fill="#F6EEF1"/>
<path d="M296.635 168.421C296.635 171.714 298.263 173.637 301.518 174.189C307.286 175.179 312.769 175.274 317.966 174.474C322.002 173.865 324.048 171.524 324.106 167.45L324.22 161.053C324.258 159.074 325.267 158.093 327.247 158.112L348.578 158.141C350.405 158.141 351.262 159.055 351.148 160.882C350.919 165.07 350.643 169.23 350.32 173.361C348.378 197.262 310.684 193.75 294.893 192.579C279.873 191.494 269.736 183.184 269.793 168.249C269.926 136.172 269.917 103.78 269.764 71.0748C269.679 55.0552 277.703 46.2029 294.865 44.7466C308.99 43.5663 321.298 43.8899 331.787 45.7175C354.717 49.6867 349.948 69.1045 351.119 85.6953C351.157 86.2093 350.919 86.4663 350.405 86.4663L324.905 86.4092C324.803 86.4098 324.701 86.3883 324.607 86.3462C324.513 86.304 324.429 86.2421 324.359 86.1643C324.289 86.0865 324.236 85.9946 324.202 85.8942C324.168 85.7938 324.155 85.6872 324.163 85.5811C325.476 72.198 324.163 64.9068 320.222 63.7075C313.331 61.6325 306.591 61.6801 300.005 63.8503C299.002 64.1731 298.128 64.8099 297.512 65.6678C296.896 66.5257 296.568 67.5598 296.578 68.6191L296.635 168.421Z" fill="#F6EEF1"/>
<path d="M401.12 82.1258L414.884 82.0116C416.464 81.9926 417.387 82.7731 417.654 84.3532L418.225 87.8369C418.291 88.2426 418.269 88.6578 418.161 89.0537C418.052 89.4497 417.859 89.8167 417.595 90.1294C417.332 90.442 417.003 90.6927 416.634 90.8639C416.264 91.0351 415.862 91.1228 415.455 91.1208H384.986C383.501 91.1208 382.749 90.3784 382.73 88.8935C382.702 85.9523 383.53 82.9254 385.871 80.8123C391.297 75.9007 396.561 71.1129 401.663 66.4488C404.832 63.5362 407.888 57.7108 403.233 54.4269C398.464 51.0859 392.268 54.7411 387.499 56.2831C386.86 56.4908 386.18 56.5399 385.517 56.4261C384.855 56.3124 384.229 56.0391 383.693 55.6297C383.158 55.2202 382.728 54.6867 382.441 54.0746C382.154 53.4624 382.018 52.7898 382.045 52.1139C382.121 50.4577 383.025 49.1632 384.758 48.2304C395.894 42.1766 417.397 41.6341 415.969 59.6241C415.312 67.9337 406.231 74.3873 400.206 79.7272C399.997 79.9117 399.849 80.1557 399.782 80.4266C399.715 80.6975 399.733 80.9824 399.832 81.2431C399.931 81.5039 400.108 81.7281 400.338 81.8858C400.568 82.0436 400.841 82.1273 401.12 82.1258Z" fill="#1DDBEF"/>
<path d="M448.922 92.0631C443.59 92.0631 438.477 89.5239 434.707 85.0041C430.937 80.4843 428.819 74.3542 428.819 67.9622C428.819 61.5703 430.937 55.4401 434.707 50.9203C438.477 46.4005 443.59 43.8613 448.922 43.8613C454.254 43.8613 459.367 46.4005 463.137 50.9203C466.907 55.4401 469.025 61.5703 469.025 67.9622C469.025 74.3542 466.907 80.4843 463.137 85.0041C459.367 89.5239 454.254 92.0631 448.922 92.0631ZM457.657 61.8125C457.667 60.7625 457.469 59.721 457.076 58.7474C456.682 57.7739 456.101 56.8873 455.365 56.1384C454.629 55.3895 453.753 54.7928 452.786 54.3826C451.82 53.9723 450.782 53.7564 449.732 53.7473L448.532 53.737C446.412 53.7185 444.371 54.5431 442.859 56.0294C441.346 57.5156 440.486 59.5419 440.468 61.6623L440.358 74.2262C440.349 75.2761 440.546 76.3177 440.94 77.2912C441.333 78.2648 441.914 79.1513 442.65 79.9003C443.386 80.6492 444.263 81.2458 445.229 81.6561C446.196 82.0664 447.233 82.2823 448.283 82.2914L449.483 82.3017C451.603 82.3202 453.644 81.4956 455.157 80.0093C456.669 78.523 457.529 76.4968 457.548 74.3764L457.657 61.8125Z" fill="#1DDBEF"/>
<path d="M499.123 82.0115H512.03C514.124 82.0115 515.199 83.049 515.257 85.1241L515.342 87.9796C515.418 90.0356 514.438 91.0636 512.401 91.0636L482.618 91.2064C482.278 91.2064 481.941 91.1397 481.627 91.0102C481.314 90.8806 481.029 90.6909 480.79 90.4518C480.551 90.2128 480.362 89.9293 480.235 89.6177C480.107 89.306 480.044 88.9725 480.048 88.6364C480.048 85.6476 481.142 83.1918 483.331 81.269C489.119 76.2052 494.763 70.8463 500.265 65.1923C502.568 62.7936 503.435 60.1189 502.863 57.1682C502.673 56.1973 502.159 55.4358 501.321 54.8837C497.476 52.3137 493.202 52.4851 488.5 55.3977C486.139 56.8445 483.769 56.8445 481.39 55.3977C480.876 55.0931 480.447 54.7029 480.105 54.2269C478.658 52.2281 478.962 50.5433 481.018 49.1726C491.47 42.2051 515.713 41.1485 513.343 60.0523C512.287 68.3905 504.091 74.2729 498.123 79.3273C496.01 81.1168 496.343 82.0115 499.123 82.0115Z" fill="#1DDBEF"/>
<path d="M565.4 75.044V80.0126C561.497 82.259 559.841 85.1051 560.431 88.5508C560.755 90.3783 559.984 91.2826 558.118 91.2635L553.292 91.1779C551.351 91.1398 550.399 90.1499 550.437 88.2081L550.523 83.6106C550.561 82.1448 549.837 81.4119 548.352 81.4119L527.021 81.3548C526.07 81.3548 525.527 80.8883 525.394 79.9555C524.918 76.7954 525.698 73.8256 527.735 71.0462C533.751 62.8222 539.624 54.9694 545.354 47.4879C546.534 45.9459 548.095 45.1463 550.037 45.0892L555.234 44.9179C557.29 44.8417 557.709 45.6318 556.491 47.288L539.786 70.2181C539.595 70.4758 539.482 70.7827 539.459 71.1026C539.437 71.4225 539.506 71.7422 539.659 72.0241C539.812 72.306 540.042 72.5384 540.323 72.6939C540.603 72.8495 540.922 72.9218 541.242 72.9023L548.781 72.474C549.191 72.4479 549.579 72.2748 549.873 71.9865C550.166 71.6981 550.346 71.3136 550.38 70.9034L550.723 66.5059C550.765 65.9961 550.944 65.5072 551.241 65.0903C551.537 64.6734 551.94 64.3437 552.407 64.1357C554.254 63.3362 556.243 63.1078 558.375 63.4504C559.594 63.6408 560.27 64.3452 560.403 65.5635C560.841 69.2757 562.506 72.4359 565.4 75.044Z" fill="#1DDBEF"/>
<path d="M160.311 47.3165L159.94 94.833C159.921 95.9752 159.407 96.8319 158.398 97.403L122.075 118.163C110.824 111.329 99.9826 104.447 89.5503 97.5172C87.8751 96.394 86.6282 96.4892 85.8096 97.8028C85.7715 95.4422 86.1808 93.9953 87.0374 93.4623C97.584 86.9516 107.94 80.1649 118.106 73.1022C118.886 72.5501 118.801 71.741 117.849 70.675C119.657 71.5697 121.285 71.5602 122.732 70.6464C134.383 63.26 146.909 55.4834 160.311 47.3165Z" fill="#2C6BB2"/>
<path d="M41.377 73.0166L41.4056 214.281L11.3366 233.584L0 233.613V98.9736L41.377 73.0166Z" fill="#F6EEF1"/>
<path d="M122.075 118.163C133.516 126.025 145.491 133.669 157.998 141.093C159.178 141.778 159.835 142.692 159.968 143.834L121.847 166.079C121.047 166.555 120.181 166.764 119.248 166.707C118.468 166.65 117.849 166.755 117.392 167.021L87.8941 147.489C86.5044 146.557 85.8096 145.262 85.8096 143.606V97.8027C86.6282 96.4892 87.8751 96.394 89.5504 97.5172C99.9826 104.447 110.824 111.329 122.075 118.163Z" fill="#F6EEF1"/>
<path d="M459.687 167.65C459.687 174.352 457.025 180.78 452.285 185.519C447.546 190.259 441.118 192.921 434.416 192.921H395.809C389.106 192.921 382.678 190.259 377.939 185.519C373.199 180.78 370.537 174.352 370.537 167.65V129.899C370.537 123.197 373.199 116.769 377.939 112.029C382.678 107.29 389.106 104.628 395.809 104.628H434.416C441.118 104.628 447.546 107.29 452.285 112.029C457.025 116.769 459.687 123.197 459.687 129.899V167.65ZM433.329 133.158C433.331 131.995 433.104 130.844 432.661 129.769C432.219 128.694 431.568 127.717 430.748 126.894C429.927 126.07 428.952 125.417 427.879 124.97C426.806 124.523 425.655 124.292 424.493 124.29L405.931 124.258C404.769 124.255 403.618 124.482 402.543 124.925C401.468 125.368 400.491 126.019 399.667 126.839C398.844 127.66 398.19 128.635 397.744 129.708C397.297 130.781 397.066 131.932 397.064 133.094L397.009 164.505C397.007 165.668 397.234 166.819 397.677 167.894C398.12 168.969 398.77 169.946 399.591 170.769C400.411 171.593 401.386 172.247 402.459 172.693C403.533 173.14 404.683 173.371 405.846 173.373L424.407 173.406C425.569 173.408 426.721 173.181 427.796 172.738C428.871 172.295 429.848 171.644 430.671 170.824C431.494 170.003 432.148 169.028 432.595 167.955C433.042 166.882 433.273 165.731 433.275 164.569L433.329 133.158Z" fill="#F6EEF1"/>
<path d="M565.4 106.17V192.95L539.7 192.836C538.919 192.836 538.32 192.512 537.901 191.865L512.115 150.916C510.726 148.708 510.031 148.908 510.031 151.516V191.322C510.031 192.483 509.45 193.064 508.289 193.064H485.958C484.188 193.064 483.303 192.179 483.303 190.408V107.226C483.303 107.059 483.336 106.893 483.401 106.739C483.466 106.584 483.561 106.444 483.681 106.327C483.8 106.21 483.942 106.118 484.098 106.057C484.254 105.996 484.42 105.966 484.588 105.97L508.403 106.255C509.621 106.274 510.535 106.817 511.144 107.883L536.416 151.916C537.996 154.619 538.767 154.409 538.729 151.287L538.358 107.369C538.358 107.111 538.463 106.864 538.651 106.682C538.838 106.5 539.092 106.398 539.357 106.398L565.4 106.17Z" fill="#F6EEF1"/>
<path d="M159.968 143.834L159.54 189.409C159.54 190.38 159.121 191.113 158.283 191.608L104.599 224.532C100.506 218.878 96.1275 213.481 91.4634 208.341C89.7501 206.438 88.4936 203.649 87.6941 199.975C86.9897 196.719 84.8575 193.654 81.2976 190.78C92.8721 183.679 104.475 176.635 116.107 169.649C116.754 169.268 117.182 168.392 117.392 167.021C117.849 166.755 118.467 166.65 119.248 166.707C120.181 166.764 121.047 166.555 121.846 166.079L159.968 143.834Z" fill="#418FCD"/>
<path d="M81.2978 190.78C84.8577 193.654 86.9899 196.719 87.6942 199.975C88.4938 203.649 89.7502 206.438 91.4636 208.341C96.1276 213.481 100.506 218.878 104.599 224.532L52.8565 255.886C52.3377 256.205 51.7399 256.376 51.1266 256.381C50.5132 256.386 49.9072 256.225 49.3727 255.915L11.3367 233.584L41.4057 214.281C42.4908 214.681 43.4141 214.624 44.1756 214.11C56.3593 206.019 68.7333 198.242 81.2978 190.78Z" fill="#2B53A4"/>
<path d="M175.776 247.05C173.376 247.05 171.546 246.375 170.286 245.025C169.026 243.645 168.396 241.68 168.396 239.13V222.57C168.396 220.02 169.026 218.07 170.286 216.72C171.546 215.34 173.376 214.65 175.776 214.65C178.176 214.65 180.006 215.34 181.266 216.72C182.526 218.07 183.156 220.02 183.156 222.57V225.27H178.476V222.255C178.476 220.185 177.621 219.15 175.911 219.15C174.201 219.15 173.346 220.185 173.346 222.255V239.49C173.346 241.53 174.201 242.55 175.911 242.55C177.621 242.55 178.476 241.53 178.476 239.49V233.325H176.001V228.825H183.156V239.13C183.156 241.68 182.526 243.645 181.266 245.025C180.006 246.375 178.176 247.05 175.776 247.05ZM186.334 215.1H199.834V219.6H191.284V227.925H198.079V232.425H191.284V242.1H199.834V246.6H186.334V215.1ZM202.682 215.1H208.892L213.707 233.955H213.797V215.1H218.207V246.6H213.122L207.182 223.605H207.092V246.6H202.682V215.1ZM221.886 215.1H235.386V219.6H226.836V227.925H233.631V232.425H226.836V242.1H235.386V246.6H221.886V215.1ZM244.757 247.05C242.357 247.05 240.542 246.375 239.312 245.025C238.082 243.645 237.467 241.68 237.467 239.13V237.33H242.147V239.49C242.147 241.53 243.002 242.55 244.712 242.55C245.552 242.55 246.182 242.31 246.602 241.83C247.052 241.32 247.277 240.51 247.277 239.4C247.277 238.08 246.977 236.925 246.377 235.935C245.777 234.915 244.667 233.7 243.047 232.29C241.007 230.49 239.582 228.87 238.772 227.43C237.962 225.96 237.557 224.31 237.557 222.48C237.557 219.99 238.187 218.07 239.447 216.72C240.707 215.34 242.537 214.65 244.937 214.65C247.307 214.65 249.092 215.34 250.292 216.72C251.522 218.07 252.137 220.02 252.137 222.57V223.875H247.457V222.255C247.457 221.175 247.247 220.395 246.827 219.915C246.407 219.405 245.792 219.15 244.982 219.15C243.332 219.15 242.507 220.155 242.507 222.165C242.507 223.305 242.807 224.37 243.407 225.36C244.037 226.35 245.162 227.55 246.782 228.96C248.852 230.76 250.277 232.395 251.057 233.865C251.837 235.335 252.227 237.06 252.227 239.04C252.227 241.62 251.582 243.6 250.292 244.98C249.032 246.36 247.187 247.05 244.757 247.05ZM255.065 215.1H260.015V246.6H255.065V215.1ZM270.157 247.05C267.757 247.05 265.942 246.375 264.712 245.025C263.482 243.645 262.867 241.68 262.867 239.13V237.33H267.547V239.49C267.547 241.53 268.402 242.55 270.112 242.55C270.952 242.55 271.582 242.31 272.002 241.83C272.452 241.32 272.677 240.51 272.677 239.4C272.677 238.08 272.377 236.925 271.777 235.935C271.177 234.915 270.067 233.7 268.447 232.29C266.407 230.49 264.982 228.87 264.172 227.43C263.362 225.96 262.957 224.31 262.957 222.48C262.957 219.99 263.587 218.07 264.847 216.72C266.107 215.34 267.937 214.65 270.337 214.65C272.707 214.65 274.492 215.34 275.692 216.72C276.922 218.07 277.537 220.02 277.537 222.57V223.875H272.857V222.255C272.857 221.175 272.647 220.395 272.227 219.915C271.807 219.405 271.192 219.15 270.382 219.15C268.732 219.15 267.907 220.155 267.907 222.165C267.907 223.305 268.207 224.37 268.807 225.36C269.437 226.35 270.562 227.55 272.182 228.96C274.252 230.76 275.677 232.395 276.457 233.865C277.237 235.335 277.627 237.06 277.627 239.04C277.627 241.62 276.982 243.6 275.692 244.98C274.432 246.36 272.587 247.05 270.157 247.05ZM286.502 215.1H291.272L293.477 239.31H293.567L295.907 215.1H301.307L303.647 239.31H303.737L305.942 215.1H310.217L307.022 246.6H300.857L298.607 225.36H298.517L296.267 246.6H289.697L286.502 215.1ZM315.931 215.1H322.636L327.766 246.6H322.816L321.916 240.345V240.435H316.291L315.391 246.6H310.801L315.931 215.1ZM321.331 236.16L319.126 220.59H319.036L316.876 236.16H321.331ZM327.588 215.1H332.583L335.823 239.535H335.913L339.153 215.1H343.698L338.928 246.6H332.358L327.588 215.1ZM346.075 215.1H359.575V219.6H351.025V227.925H357.82V232.425H351.025V242.1H359.575V246.6H346.075V215.1ZM376.785 247.05C374.355 247.05 372.495 246.36 371.205 244.98C369.915 243.6 369.27 241.65 369.27 239.13V222.57C369.27 220.05 369.915 218.1 371.205 216.72C372.495 215.34 374.355 214.65 376.785 214.65C379.215 214.65 381.075 215.34 382.365 216.72C383.655 218.1 384.3 220.05 384.3 222.57V239.13C384.3 241.65 383.655 243.6 382.365 244.98C381.075 246.36 379.215 247.05 376.785 247.05ZM376.785 242.55C378.495 242.55 379.35 241.515 379.35 239.445V222.255C379.35 220.185 378.495 219.15 376.785 219.15C375.075 219.15 374.22 220.185 374.22 222.255V239.445C374.22 241.515 375.075 242.55 376.785 242.55ZM387.648 215.1H400.743V219.6H392.598V228.375H398.988V232.875H392.598V246.6H387.648V215.1ZM410.324 215.1H415.274V246.6H410.324V215.1ZM418.981 215.1H425.191L430.006 233.955H430.096V215.1H434.506V246.6H429.421L423.481 223.605H423.391V246.6H418.981V215.1ZM438.185 215.1H444.395L449.21 233.955H449.3V215.1H453.71V246.6H448.625L442.685 223.605H442.595V246.6H438.185V215.1ZM464.544 247.05C462.114 247.05 460.254 246.36 458.964 244.98C457.674 243.6 457.029 241.65 457.029 239.13V222.57C457.029 220.05 457.674 218.1 458.964 216.72C460.254 215.34 462.114 214.65 464.544 214.65C466.974 214.65 468.834 215.34 470.124 216.72C471.414 218.1 472.059 220.05 472.059 222.57V239.13C472.059 241.65 471.414 243.6 470.124 244.98C468.834 246.36 466.974 247.05 464.544 247.05ZM464.544 242.55C466.254 242.55 467.109 241.515 467.109 239.445V222.255C467.109 220.185 466.254 219.15 464.544 219.15C462.834 219.15 461.979 220.185 461.979 222.255V239.445C461.979 241.515 462.834 242.55 464.544 242.55ZM474.014 215.1H479.009L482.249 239.535H482.339L485.579 215.1H490.124L485.354 246.6H478.784L474.014 215.1ZM495.052 215.1H501.757L506.887 246.6H501.937L501.037 240.345V240.435H495.412L494.512 246.6H489.922L495.052 215.1ZM500.452 236.16L498.247 220.59H498.157L495.997 236.16H500.452ZM511.093 219.6H505.918V215.1H521.218V219.6H516.043V246.6H511.093V219.6ZM523.615 215.1H528.565V246.6H523.615V215.1ZM539.427 247.05C536.997 247.05 535.137 246.36 533.847 244.98C532.557 243.6 531.912 241.65 531.912 239.13V222.57C531.912 220.05 532.557 218.1 533.847 216.72C535.137 215.34 536.997 214.65 539.427 214.65C541.857 214.65 543.717 215.34 545.007 216.72C546.297 218.1 546.942 220.05 546.942 222.57V239.13C546.942 241.65 546.297 243.6 545.007 244.98C543.717 246.36 541.857 247.05 539.427 247.05ZM539.427 242.55C541.137 242.55 541.992 241.515 541.992 239.445V222.255C541.992 220.185 541.137 219.15 539.427 219.15C537.717 219.15 536.862 220.185 536.862 222.255V239.445C536.862 241.515 537.717 242.55 539.427 242.55ZM550.289 215.1H556.499L561.314 233.955H561.404V215.1H565.814V246.6H560.729L554.789 223.605H554.699V246.6H550.289V215.1Z" fill="#F6EEF1"/>
</g>
<path d="M374.64 292.48C372.693 292.48 370.76 292.227 368.84 291.72C366.92 291.187 365.293 290.44 363.96 289.48L366.48 284.52C367.547 285.293 368.787 285.907 370.2 286.36C371.613 286.813 373.04 287.04 374.48 287.04C376.107 287.04 377.387 286.72 378.32 286.08C379.253 285.44 379.72 284.56 379.72 283.44C379.72 282.373 379.307 281.533 378.48 280.92C377.653 280.307 376.32 280 374.48 280H371.52V275.72L379.32 266.88L380.04 269.2H365.36V264H384.96V268.2L377.2 277.04L373.92 275.16H375.8C379.24 275.16 381.84 275.933 383.6 277.48C385.36 279.027 386.24 281.013 386.24 283.44C386.24 285.013 385.827 286.493 385 287.88C384.173 289.24 382.907 290.347 381.2 291.2C379.493 292.053 377.307 292.48 374.64 292.48ZM404.192 292.48C402.139 292.48 400.312 292.147 398.712 291.48C397.112 290.813 395.845 289.907 394.912 288.76C393.979 287.613 393.512 286.293 393.512 284.8C393.512 283.413 393.819 282.173 394.432 281.08C395.045 279.96 396.019 278.92 397.352 277.96C398.685 276.973 400.379 276.013 402.432 275.08C403.925 274.387 405.099 273.773 405.952 273.24C406.805 272.707 407.405 272.2 407.752 271.72C408.099 271.213 408.272 270.707 408.272 270.2C408.272 269.507 408.032 268.947 407.552 268.52C407.099 268.093 406.419 267.88 405.512 267.88C404.552 267.88 403.805 268.12 403.272 268.6C402.739 269.08 402.472 269.693 402.472 270.44C402.472 270.84 402.552 271.24 402.712 271.64C402.872 272.013 403.179 272.453 403.632 272.96C404.085 273.44 404.725 274.067 405.552 274.84L420.312 288.52L416.912 292.48L400.632 277.36C399.699 276.507 398.952 275.707 398.392 274.96C397.832 274.213 397.419 273.48 397.152 272.76C396.912 272.04 396.792 271.293 396.792 270.52C396.792 269.16 397.152 267.96 397.872 266.92C398.592 265.88 399.605 265.08 400.912 264.52C402.219 263.933 403.752 263.64 405.512 263.64C407.139 263.64 408.539 263.907 409.712 264.44C410.912 264.947 411.845 265.68 412.512 266.64C413.205 267.6 413.552 268.747 413.552 270.08C413.552 271.253 413.259 272.333 412.672 273.32C412.085 274.28 411.165 275.187 409.912 276.04C408.685 276.893 407.072 277.76 405.072 278.64C403.712 279.253 402.632 279.853 401.832 280.44C401.059 281 400.499 281.573 400.152 282.16C399.805 282.747 399.632 283.4 399.632 284.12C399.632 284.787 399.832 285.387 400.232 285.92C400.659 286.453 401.245 286.867 401.992 287.16C402.739 287.453 403.619 287.6 404.632 287.6C406.259 287.6 407.752 287.227 409.112 286.48C410.472 285.707 411.619 284.573 412.552 283.08C413.512 281.56 414.192 279.72 414.592 277.56L419.592 279.12C419.032 281.84 418.032 284.2 416.592 286.2C415.152 288.2 413.379 289.747 411.272 290.84C409.165 291.933 406.805 292.48 404.192 292.48ZM426.97 286.12V281.76L440.17 264H446.97L434.05 281.76L430.89 280.84H452.93V286.12H426.97ZM442.05 292V286.12L442.25 280.84V275.6H448.37V292H442.05ZM482.756 276.6H496.196V281.8H482.756V276.6ZM483.236 292H476.756V264H497.916V269.2H483.236V292ZM512.663 275.28H526.143V280.32H512.663V275.28ZM513.143 286.8H528.383V292H506.703V264H527.863V269.2H513.143V286.8ZM537.939 292V264H551.619C555.139 264 557.779 264.667 559.539 266C561.325 267.333 562.219 269.093 562.219 271.28C562.219 272.747 561.859 274.027 561.139 275.12C560.419 276.187 559.432 277.013 558.179 277.6C556.925 278.187 555.485 278.48 553.859 278.48L554.619 276.84C556.379 276.84 557.939 277.133 559.299 277.72C560.659 278.28 561.712 279.12 562.459 280.24C563.232 281.36 563.619 282.733 563.619 284.36C563.619 286.76 562.672 288.64 560.779 290C558.885 291.333 556.099 292 552.419 292H537.939ZM544.379 287.12H551.939C553.619 287.12 554.885 286.853 555.739 286.32C556.619 285.76 557.059 284.88 557.059 283.68C557.059 282.507 556.619 281.64 555.739 281.08C554.885 280.493 553.619 280.2 551.939 280.2H543.899V275.48H550.819C552.392 275.48 553.592 275.213 554.419 274.68C555.272 274.12 555.699 273.28 555.699 272.16C555.699 271.067 555.272 270.253 554.419 269.72C553.592 269.16 552.392 268.88 550.819 268.88H544.379V287.12Z" fill="#06DCF2"/>
<defs>
<clipPath id="clip0_201_58">
<rect width="565.4" height="257" fill="white"/>
</clipPath>
</defs>
</svg>
